<svg width="61" height="60" viewBox="0 0 61 60" fill="none" xmlns="http://www.w3.org/2000/svg">
<path fill-rule="evenodd" clip-rule="evenodd" d="M0.5 30.0174C0.5 13.4588 13.9653 0 30.5 0C47.0347 0 60.5 13.4588 60.5 30.0174C60.5 46.5412 47.0347 60 30.5 60C13.9653 60 0.5 46.5412 0.5 30.0174ZM41.5038 33.0538C41.8224 32.7354 42.2278 32.2434 42.3147 32.1276C42.778 31.5198 43.0096 30.7672 43.0096 30.0176C43.0096 29.1754 42.749 28.3939 42.2567 27.7571C42.2164 27.7168 42.1374 27.6308 42.0345 27.5188C41.8418 27.3091 41.5653 27.0082 41.3011 26.7441C38.9266 24.1971 32.7297 20.0292 29.4865 18.7557C28.9942 18.556 27.749 18.1189 27.083 18.09C26.4459 18.09 25.8378 18.2347 25.2587 18.5241C24.5347 18.9293 23.9556 19.5661 23.6371 20.3186C23.4344 20.8396 23.1158 22.4026 23.1158 22.4315C22.7973 24.1392 22.6235 26.9178 22.6235 29.9858C22.6235 32.912 22.7973 35.5719 23.0579 37.3085C23.0651 37.3157 23.09 37.4399 23.1287 37.6328C23.2463 38.2194 23.4914 39.4414 23.7529 39.9424C24.3899 41.158 25.6351 41.9105 26.9672 41.9105H27.083C27.9517 41.8816 29.7761 41.129 29.7761 41.1001C32.8455 39.8266 38.8977 35.8613 41.3301 33.2274L41.5038 33.0538Z" fill="#4838D1"/>
</svg>
