<svg width="203" height="179" viewBox="0 0 203 179" fill="none" xmlns="http://www.w3.org/2000/svg">
<path d="M185.887 177.77C205.85 165.033 207.155 103.271 168.548 88.8153C129.94 74.3593 137.095 37.8808 104.615 10.6128C75.0076 -14.2426 26.0276 6.82718 9.71514 71.4666C-1.91734 117.558 11.6551 175.378 20.9176 177.77H185.887Z" fill="#1C1C4D"/>
<path d="M81.6051 73.3542C80.7776 70.7028 81.1476 67.8823 79.3551 65.4896C78.7251 64.6489 78.0701 64.1987 77.485 63.2834C76.54 61.8085 74.355 59.5923 73.675 58.672C73.6154 58.615 73.5685 58.5461 73.5375 58.4698C73.5065 58.3935 73.492 58.3115 73.495 58.2293C73.565 57.8811 74.0225 57.6423 74.4075 57.6423C74.7445 57.6733 75.0617 57.8141 75.31 58.0427C76.31 58.7516 78.1876 60.4206 78.6101 59.9828C79.1101 59.468 79.0276 58.0378 78.165 55.4212C77.3025 52.8046 75.7675 48.9345 76.7175 48.7977C77.6675 48.6609 80.3251 55.8739 80.7376 55.8565C81.1501 55.8391 80.9326 47.2108 81.8951 46.8253C82.8576 46.4398 82.7726 54.9063 83.0726 55.2819C83.3726 55.6575 85.4851 47.4993 86.3226 47.7306C87.4401 48.0366 85.0301 55.1227 85.4326 55.6898C85.8351 56.2569 87.9776 50.8447 88.9776 50.5313C89.9776 50.2179 88.8201 53.8766 87.9101 55.8067C87.2226 57.2642 87.2726 61.8234 87.3426 62.8655C87.4126 63.9077 86.5251 65.89 86.8126 67.5341C87.1001 69.1782 87.7176 69.7726 87.7176 69.7726L81.6051 73.3542Z" fill="#FBC6B6"/>
<path d="M70.9175 104.299L85.9825 98.4763L79.65 69.8897L88.4375 66.9771C88.4375 66.9771 96.8276 100.367 96.9851 102.573C97.1426 104.779 79.0175 121.476 79.0175 121.476L70.9175 104.299Z" fill="#4838D1"/>
<path d="M31.2402 69.7299C30.9352 68.2898 30.3002 66.9417 29.8302 65.5463C29.4552 64.442 29.1902 62.9496 29.3477 61.7732C29.4877 60.7335 29.8477 60.0321 29.9027 58.9378C29.9557 58.2508 30.0526 57.5679 30.1927 56.8932C30.3327 56.1471 30.4952 55.4308 30.6527 54.6995C30.7702 54.1598 30.9027 53.6151 30.9702 53.0654C30.9937 52.9864 31.0005 52.9034 30.9902 52.8216C30.9799 52.7399 30.9527 52.6611 30.9102 52.5903C30.8018 52.4778 30.6562 52.408 30.5002 52.3938C30.2682 52.3641 30.0327 52.4085 29.8277 52.5207C29.5482 52.7112 29.3399 52.9885 29.2352 53.3092C28.9852 53.8563 28.7527 54.4184 28.5027 54.9706C28.3113 55.4751 28.0486 55.95 27.7227 56.3809C27.6252 56.4953 27.4727 56.6545 27.3052 56.6022C26.6177 56.3933 25.9852 55.1099 25.4577 52.4013C24.9302 49.6927 24.3752 45.5763 23.4777 45.9196C22.5802 46.2628 23.7952 53.8464 23.4252 54.0305C23.0552 54.2145 19.0202 46.5688 17.9902 46.7055C16.9602 46.8423 21.1827 54.1871 21.1027 54.6647C21.0227 55.1422 15.1852 49.0386 14.5602 49.6504C13.7352 50.4588 19.3102 55.478 19.2302 56.162C19.1502 56.846 14.4802 54.9532 13.4527 55.1671C12.4252 55.381 15.1677 57.1569 16.7027 57.6867C18.2377 58.2165 20.6327 62.4124 21.0827 63.3551C21.5327 64.2977 23.2777 65.5936 23.8327 67.1755C24.3877 68.7573 24.1427 69.5781 24.1427 69.5781L31.2402 69.7299Z" fill="#FBC6B6"/>
<path d="M77.4827 167.59C77.4817 167.599 77.4817 167.607 77.4827 167.615V167.59Z" fill="#FEECE7"/>
<path d="M88.9377 150.709C88.5177 149.869 88.1202 149.095 87.7377 148.366C84.2377 149.573 80.2602 150.913 76.1802 152.294L77.4827 167.593C77.4827 167.275 78.7327 172.232 80.0952 177.724H95.4476C94.0276 168.208 91.7676 156.4 88.9377 150.709Z" fill="#6E62DB"/>
<path d="M76.1801 152.291C69.3826 154.589 63.1402 156.795 57.3052 158.905C58.4902 164.456 60.0402 171.515 61.3727 177.721H81.1826C81.3801 171.142 81.2401 164.131 80.5651 158.32L76.1801 152.291Z" fill="#BAB4EE"/>
<path d="M73.6126 104.371L68.7676 104.398C68.7676 104.398 60.1876 104.866 58.6151 105.068C58.4776 105.085 55.8801 135.604 55.7201 146.993C55.6162 153.8 56.1814 160.601 57.4076 167.299C57.4076 167.299 68.3901 166.996 76.01 165.409C83.9325 163.76 94.215 159.897 94.215 159.897C94.215 159.897 82.13 132.619 79.965 126.05C77.8 119.481 73.6126 104.371 73.6126 104.371Z" fill="white"/>
<path d="M85.9875 126.595L74.585 104.09L68.7275 104.339C68.7275 104.339 74.0025 113.365 77.0625 122.369C80.1225 131.373 92.7925 164.944 92.7925 164.944C92.7925 164.944 97.3675 165.051 98.2525 162.228C99.1375 159.405 85.9875 126.595 85.9875 126.595Z" fill="#4838D1"/>
<path d="M58.6526 105.065L42.2926 87.8405C42.2926 87.8405 30.8852 65.7833 30.5777 65.0297C30.2702 64.2761 24.3752 66.0022 22.5052 67.129C22.0052 67.4324 32.3201 95.2178 32.3201 95.2178L45.6251 111.96C45.6251 111.96 51.3751 121.69 51.6026 129.701C51.9976 143.006 50.0501 167.901 50.6826 168.401C54.4551 170.189 67.3051 173.127 69.3626 168.401C76.5076 151.995 58.6526 105.065 58.6526 105.065Z" fill="#4838D1"/>
<path d="M57.0127 96.2679L58.6527 105.065C58.6527 105.065 65.1777 115.786 68.4027 114.204C71.1177 112.876 68.8677 104.645 68.8677 104.645C68.8677 104.645 68.0152 102.735 67.3127 100.563C66.8127 99.0462 66.4102 97.3996 66.4152 96.1858C66.4402 93.2333 57.0127 96.2679 57.0127 96.2679Z" fill="#F9A085"/>
<path d="M66.4275 96.1857C66.44 93.2332 58.72 96.3672 58.72 96.3672V97.2328C59.0055 97.7212 59.3763 98.155 59.815 98.5138C61.905 100.138 64.885 100.844 67.3151 100.551C66.8351 99.0361 66.4225 97.3945 66.4275 96.1857Z" fill="#F77A55"/>
<path d="M67.5825 77.6841C67.5825 77.6841 70.21 82.9822 69.925 87.1237C69.64 91.2653 68.405 93.9591 68.405 93.9591L59.5425 80.2013L67.5825 77.6841Z" fill="#1C155B"/>
<path d="M55.9151 81.7615C55.6826 81.6819 54.1651 93.648 57.2901 96.9063C60.4151 100.165 66.4501 101.187 68.5851 98.5753C70.9475 95.6876 70.705 82.8434 65.8651 79.508C61.0251 76.1726 55.9151 81.7615 55.9151 81.7615Z" fill="#F9A085"/>
<path d="M55.9852 74.2298C53.0252 76.2196 51.5202 77.7443 49.1902 81.642C46.3227 86.4351 50.0377 92.2505 53.4402 94.81C56.8427 97.3695 56.8252 100.26 56.8252 100.26L57.3577 98.8071C57.7427 97.6306 56.0227 92.5067 55.7077 91.855C54.8752 90.1313 54.7077 89.7607 55.4227 88.3156C55.9652 87.2012 55.8402 84.5845 56.6952 82.7389L61.7927 82.3086C61.7927 82.3086 64.9902 81.9629 66.7927 80.3635C71.9602 75.7694 63.8052 68.877 55.9852 74.2298Z" fill="#1C155B"/>
<path d="M56.4451 89.7705C56.8876 91.1608 56.5876 92.5065 55.7751 92.7552C54.9626 93.0039 53.9451 92.0911 53.5026 90.7007C53.0601 89.3103 53.3626 87.9647 54.1751 87.716C54.9876 87.4672 56.0026 88.385 56.4451 89.7705Z" fill="#F9A085"/>
<path d="M144.898 99.5771C144.898 99.5771 147.023 76.0349 147.523 71.2742C148.023 66.5135 145.69 51.0276 145.623 50.356C145.555 49.6845 137.755 45.1053 138.623 44.3865C139.49 43.6677 142.483 46.9235 143.298 45.9485C144.113 44.9735 142.53 34.3005 143.355 34.4572C144.895 34.7507 144.583 40.954 145.328 40.9615C146.073 40.969 145.033 34.4572 146.28 34.0393C147.528 33.6215 146.668 40.2924 147.215 40.571C147.763 40.8495 148.895 34.4 150.035 35.084C150.655 35.4546 148.883 40.7924 149.738 40.7824C150.593 40.7725 152.605 36.8898 153.275 37.3848C153.945 37.8797 151.133 40.4193 151.055 42.6926C150.978 44.966 149.7 46.5679 150.678 50.2167C151.655 53.8656 157.323 66.9662 156.793 74.6992C156.263 82.4322 154.473 98.8882 154.473 98.8882L144.898 99.5771Z" fill="#F9A085"/>
<path d="M144.913 78.481L157.615 81.197L157.14 108.601L145.98 104.701L144.913 78.481Z" fill="#4838D1"/>
<path d="M100.743 95.7074C104.625 106.838 116.628 103.843 116.633 103.843C116.978 103.891 118.15 104.88 119.22 105.363C123.757 107.407 129.47 107.771 133.148 104.473C140.215 106.927 148.057 101.612 148.502 95.3766C153.102 93.2202 153.29 88.7207 152.185 83.6293C154.3 77.2395 147.347 70.3871 140.842 69.7628C139.174 69.6239 137.495 69.8218 135.905 70.3445C134.316 70.8672 132.849 71.704 131.592 72.8047C126.317 70.0264 120 71.6332 116.358 76.4311C104.82 71.0611 96.68 84.0496 100.743 95.7074Z" fill="#F45424"/>
<path d="M174.58 177.72H193.65C193.57 177.056 193.505 176.566 193.463 176.275C192.775 171.376 159.758 139.345 159.758 139.345L142.968 156.885C142.968 156.885 153.633 164.936 157.63 167.923C160.095 169.769 168.445 174.323 174.58 177.72Z" fill="#1C155B"/>
<path d="M160.102 177.721C162.933 164.984 164.9 153.027 164.89 153.03C165.928 149.891 164.41 143.188 164.41 143.188L146.952 138.554C147.022 138.576 146.952 139.265 146.952 139.32C146.285 145.787 140.812 153.746 138.935 165.095C138.382 168.433 138.335 173.244 138.467 177.721H160.102Z" fill="#1C155B"/>
<path d="M163.08 120.031C162.863 116.444 163.308 108.873 162.99 107.719C162.99 107.624 163.015 107.527 163.033 107.43L149.783 98.2075C149.738 98.2075 149.913 98.1776 149.465 98.2348C146.575 98.6154 136.835 101.55 135.035 102.399L135.368 114.693C136.438 115.228 144.26 147.774 142.175 151.077C141.155 152.697 167.868 151.729 168.613 148.558C168.933 147.182 163.518 127.279 163.08 120.031Z" fill="#6E62DB"/>
<path d="M142.438 95.0336C142.438 95.0336 143.548 100.635 143.65 102.881C143.753 105.127 146.488 112.012 151.005 111.408C155.523 110.803 150.938 102.122 150.208 100.008C149.478 97.894 148.08 91.2578 148.08 91.2578L142.438 95.0336Z" fill="#F9A085"/>
<path d="M148.793 94.5165C147.7 96.3225 145.738 97.4792 142.828 97.1235C142.61 95.917 142.435 95.034 142.435 95.034L148.078 91.2578C148.078 91.2578 148.39 92.7354 148.793 94.5165Z" fill="#F77A55"/>
<path d="M137.713 78.7668C136.229 80.061 135.254 81.8369 134.963 83.7787C134.493 87.0123 136.653 94.8822 143.343 95.9244C150.033 96.9666 151.92 90.2309 149.903 85.4527C147.885 80.6745 144.118 74.7895 137.713 78.7668Z" fill="#F9A085"/>
<path d="M150.352 83.9551C150.41 85.2237 149.88 86.2734 149.17 86.2983C148.46 86.3231 147.835 85.3182 147.777 84.0596C147.72 82.8009 148.25 81.7437 148.96 81.7164C149.67 81.689 150.292 82.689 150.352 83.9551Z" fill="#F9A085"/>
<path d="M138.867 76.8359C138.867 76.8359 138.967 86.7583 136.182 88.9397C133.397 91.1212 135.275 95.2677 135.275 95.2677C135.275 95.2677 131.117 85.6091 133.06 82.052C135.002 78.495 138.867 76.8359 138.867 76.8359Z" fill="#F45424"/>
<path d="M138.103 90.7654C138.963 91.7605 139.143 93.0515 138.5 93.646C137.857 94.2405 136.64 93.9197 135.78 92.9247C134.92 91.9296 134.74 90.6386 135.38 90.0415C136.02 89.4445 137.24 89.7704 138.103 90.7654Z" fill="#F9A085"/>
<path d="M139.76 101.108C139.76 101.108 128.66 81.1718 125.958 76.9334C123.255 72.6951 116.24 55.8659 115.99 55.2018C115.74 54.5377 120.92 46.6156 119.773 46.3395C118.625 46.0634 117.335 50.5157 116.115 49.9785C114.895 49.4412 111.365 38.6786 110.67 39.2084C109.36 40.2033 112.565 45.8818 111.868 46.235C111.17 46.5882 109.093 39.9869 107.725 40.1735C106.358 40.36 110.295 46.2276 109.91 46.7425C109.525 47.2573 105.435 41.7281 104.685 42.8996C104.278 43.5338 108.435 47.7274 107.64 48.1229C106.845 48.5184 103.12 45.7998 102.723 46.5733C102.325 47.3469 106.16 48.4313 107.298 50.5306C108.435 52.6299 110.388 53.5428 111.18 57.4254C111.973 61.3081 113.12 75.3341 117.248 82.3583C121.375 89.3824 130.448 104.913 130.448 104.913L139.76 101.108Z" fill="#F9A085"/>
<path d="M143.448 99.8091C140.238 95.9091 132.068 85.3828 132.068 85.3828C132.068 85.3828 123.73 90.9942 122.83 93.9491C122.83 93.9491 137.955 116.653 136.83 117.101C136.838 117.106 144.543 101.13 143.448 99.8091Z" fill="#6E62DB"/>
<path d="M138.858 98.1576C137.108 93.3994 137.195 79.1671 133 75.4759C128.885 71.8569 119.803 70.7028 115.39 73.9835C111.283 77.0429 109.69 82.4578 108.028 87.4498C106.965 90.646 105.625 92.6034 102.878 94.5211C98.0851 97.869 84.5776 102.883 80.3951 106.868C72.6826 114.218 74.3951 128.806 78.4951 134.276C97.8501 160.049 124.295 144.349 127.933 127.445C129.195 121.593 146.225 118.205 138.858 98.1576Z" fill="#1C155B"/>
<path d="M95.3401 104.53L86.1626 99.359C86.4301 98.486 86.6451 97.7497 86.7951 97.1976C88.3726 91.4097 97.6276 71.6855 98.0126 70.9319C98.3976 70.1782 109.595 68.3302 108.915 67.1015C108.235 65.8728 103.28 66.9522 103.043 66.3056C102.495 64.8132 108.925 53.5533 107.893 53.3717C105.958 53.021 103.508 60.4157 102.63 60.0873C101.753 59.759 105.93 52.6255 104.663 51.5659C103.395 50.5063 101.37 58.7019 100.603 58.779C99.8351 58.8561 101.44 50.8197 99.7951 51.0958C98.9051 51.25 98.5451 58.2865 97.5451 57.8935C96.5451 57.5006 95.9601 52.0534 94.9526 52.3295C93.9451 52.6056 96.0401 57.7692 95.1001 60.4604C94.1601 63.1517 94.9601 64.6714 92.1601 68.4968C89.3601 72.3223 72.0426 98.777 73.7926 103.451C75.2201 107.236 89.2751 114.932 90.8101 114.753C96.6901 114.061 95.3401 104.53 95.3401 104.53Z" fill="#F9A085"/>
<path d="M178.75 70.5941C178.722 67.5223 177.957 61.5901 176.75 57.5408C176.552 56.8816 173.192 52.8149 172.902 52.412C172.612 52.009 170.172 50.1535 169.85 51.616C169.757 52.0364 171.878 54.1506 172.667 54.9714C172.023 54.1431 168.845 51.7379 168.287 51.9369C167.205 52.3398 170.688 56.1902 171.808 57.1851C172.703 57.981 172.418 61.2394 172.268 62.5154C172.215 62.9656 171.83 64.1719 171.975 63.7441C172 63.6645 171.255 61.7742 170.975 60.7593C170.79 60.0952 170.293 59.7818 169.93 60.13C169.028 60.9931 169.77 66.8184 170.18 67.6566C170.68 68.6515 171.905 70.3778 172.375 71.0344C172.375 71.0344 168.375 99.805 167.35 100.278C164.943 101.384 143.308 107.458 143.308 107.458C143.308 107.458 142.778 121.032 143.365 120.676C143.953 120.32 173.76 110.202 175.667 107.742C178.417 104.2 179.093 88.1645 178.648 77.4591C178.63 73.2481 178.752 70.619 178.75 70.5941Z" fill="#FBC6B6"/>
<path d="M175.702 63.1567L176.005 63.4742C176.086 63.6524 176.128 63.8459 176.128 64.0417C176.128 64.2376 176.086 64.4311 176.005 64.6093C175.837 64.9393 175.605 64.9542 174.197 65.1642C173.18 65.3142 171.875 65.1367 169.922 64.8467L175.702 63.1567Z" fill="#F77A55"/>
<path d="M175.973 63.4058L171.63 51.1756C171.56 50.9903 171.42 50.8394 171.24 50.7545C171.06 50.6697 170.854 50.6574 170.665 50.7204L170.18 50.8821L165.808 52.5163C165.731 52.5426 165.661 52.5839 165.601 52.6378C165.541 52.6917 165.493 52.757 165.459 52.8299C165.425 52.9027 165.406 52.9816 165.403 53.0619C165.4 53.1422 165.414 53.2223 165.443 53.2973L170.128 65.1718L174.315 64.7016L175.5 64.3211C175.593 64.2935 175.678 64.2476 175.753 64.1861C175.827 64.1247 175.888 64.0489 175.932 63.9635C175.976 63.878 176.003 63.7845 176.009 63.6887C176.016 63.5929 176.004 63.4966 175.973 63.4058Z" fill="#4838D1"/>
<path d="M169.397 60.1717C168.871 61.2028 168.515 62.3114 168.342 63.4549C168.077 65.2906 171.15 69.6086 171.705 70.0289C172.26 70.4493 172.22 67.8376 172.22 67.8376C172.22 67.8376 172.59 65.4747 172.007 65.1861C171.425 64.8976 170.532 63.848 170.532 63.848C170.532 63.848 171.06 58.361 169.397 60.1717Z" fill="#FBC6B6"/>
<path d="M175.585 58.8213L174.555 56.4583C174.555 56.4583 172.18 52.1652 170.755 52.7572C169.33 53.3492 173.565 57.2344 173.565 57.2344C174.554 59.5711 175.411 61.961 176.133 64.3928L176.77 63.0994L175.585 58.8213Z" fill="#FBC6B6"/>
<path d="M139.343 177.721L135.248 165.725L105.567 162.648C105.567 162.648 100.022 172.963 98.23 177.714L139.343 177.721Z" fill="#F45424"/>
<path d="M157.042 118.31L153.007 104.058L128.578 107.042C128.578 107.042 121.718 106.605 118.023 106.722C115.403 106.806 99.64 103.503 89.7125 101.058C89.655 101.19 86.6776 110.659 84.9351 113.967C92.3876 117.678 98.085 119.499 103.22 123.889C103.22 123.909 103.875 144.911 104.395 157.796C103.278 160.999 100.473 167.496 100.473 167.496C100.473 167.496 109.615 172.692 123.505 171.51C128.367 171.116 133.179 170.246 137.87 168.914C137.87 168.914 135.308 159.688 134.62 154.303C137.605 141.096 142.398 123.506 142.398 123.506L157.042 118.31Z" fill="white"/>
<path d="M120.125 95.0586C120.125 95.0586 119.34 104.063 118.33 106.557C117.32 109.052 117.473 118.024 122.93 119.643C128.388 121.263 128.288 109.749 128.515 107.082C128.743 104.416 128.99 95.6879 128.99 95.6879L120.125 95.0586Z" fill="#F9A085"/>
<path d="M119.85 97.7923C120.431 98.4158 121.091 98.9618 121.813 99.4166C124.455 101.091 126.88 101.068 128.847 100.066C128.932 97.6878 128.99 95.6879 128.99 95.6879L120.125 95.0586C120.125 95.0586 120.025 96.2053 119.85 97.7923Z" fill="#F77A55"/>
<path d="M123.155 76.7273C120.985 77.3289 119.101 78.682 117.845 80.5428C115.818 83.6196 114.345 93.2977 121.02 97.5261C127.695 101.755 132.97 95.1532 133.055 89.318C133.14 83.4828 131.885 75.7001 123.155 76.7273Z" fill="#F9A085"/>
<path d="M135.01 86.7859C134.865 88.2981 134.03 89.4546 133.145 89.37C132.26 89.2855 131.66 87.9922 131.805 86.4825C131.95 84.9728 132.788 83.8138 133.67 83.8984C134.553 83.983 135.155 85.2762 135.01 86.7859Z" fill="#F9A085"/>
<path d="M124.455 75.9585C124.455 75.9585 120.27 85.2984 116.593 86.1316C112.915 86.9649 112.97 91.6659 112.97 91.6659C112.97 91.6659 113.053 80.8138 116.498 78.324C119.943 75.8342 124.455 75.9585 124.455 75.9585Z" fill="#1C155B"/>
<path d="M118.16 88.3352C118.645 89.8524 118.2 91.3472 117.16 91.6705C116.12 91.9939 114.91 91.0313 114.41 89.5141C113.91 87.997 114.368 86.5047 115.41 86.1789C116.453 85.853 117.675 86.8205 118.16 88.3352Z" fill="#F9A085"/>
<path d="M102.625 66.452C102.625 66.452 98.9652 64.0195 96.8477 67.202C96.8477 67.207 99.5427 65.1445 102.625 66.452Z" fill="#F77A55"/>
<path d="M133.913 25.4619L133.983 27.8001L130.213 28.3274L129.89 31.7576L127.135 32.6108L127.57 33.9988L131.255 32.8595L131.56 29.606L135.48 29.0587L135.375 25.539L133.913 25.4619Z" fill="#BAB4EE"/>
<path d="M169.482 32.0999L156.415 29.6773C155.675 29.5397 155.021 29.1155 154.595 28.498C154.169 27.8806 154.008 27.1203 154.145 26.3842L155.515 19.0642C155.653 18.3278 156.079 17.676 156.699 17.252C157.32 16.8281 158.085 16.6666 158.825 16.8033L171.892 19.2259C172.259 19.2937 172.608 19.4328 172.921 19.635C173.233 19.8372 173.502 20.0987 173.713 20.4046C173.924 20.7104 174.072 21.0545 174.149 21.4173C174.226 21.7801 174.231 22.1545 174.162 22.519L172.792 29.839C172.655 30.5754 172.229 31.2272 171.608 31.6512C170.987 32.0751 170.223 32.2366 169.482 32.0999Z" fill="#4838D1"/>
<path d="M155.413 22.7656L148.83 27.4241L155.93 27.3669L155.413 22.7656Z" fill="#4838D1"/>
<path d="M160.58 22.8628L162.26 23.1314C162.26 23.1314 164.653 21.9375 164.818 21.3903C164.983 20.8431 164.845 19.6144 165.2 19.5249C165.48 19.4438 165.78 19.4746 166.037 19.6107C166.294 19.7469 166.487 19.9777 166.575 20.2537C166.798 20.8431 166.185 22.7409 166.358 22.9076C166.465 23.0095 167.428 23.1911 168.133 23.313C168.363 23.3485 168.578 23.4471 168.755 23.5978C168.931 23.7486 169.062 23.9454 169.133 24.1661C169.18 24.3121 169.175 24.4696 169.119 24.6126C169.064 24.7556 168.961 24.8754 168.828 24.9521L168.398 25.2008L168.623 25.641C168.703 25.7988 168.717 25.9818 168.663 26.1501C168.608 26.3183 168.488 26.4581 168.33 26.5389L167.995 26.7106L168.155 26.9767C168.204 27.0571 168.235 27.1469 168.247 27.2402C168.258 27.3334 168.25 27.4281 168.223 27.5179C168.195 27.6078 168.149 27.6909 168.087 27.7618C168.025 27.8326 167.948 27.8897 167.863 27.9293L167.568 28.0661L167.593 28.1457C167.646 28.3044 167.637 28.4773 167.569 28.6302C167.5 28.783 167.377 28.9048 167.223 28.9715L166.928 29.0958L162.45 28.382C162.03 28.3166 161.629 28.1659 161.27 27.9392L159.738 27.4269C159.658 27.4007 159.59 27.3468 159.547 27.2751C159.504 27.2034 159.488 27.1187 159.503 27.0364L160.19 23.1488C160.206 23.0606 160.255 22.9818 160.328 22.9286C160.4 22.8754 160.491 22.8518 160.58 22.8628Z" fill="white"/>
<path d="M196.087 44.0044L196.822 42.308L195.835 40.7435C195.806 40.703 195.79 40.655 195.789 40.6055C195.788 40.5561 195.802 40.5074 195.829 40.4657C195.855 40.4241 195.894 40.3913 195.94 40.3716C195.985 40.352 196.036 40.3463 196.085 40.3554L197.935 40.5295L199.125 39.1117C199.154 39.0733 199.194 39.0442 199.24 39.028C199.286 39.0118 199.335 39.0093 199.382 39.0206C199.43 39.032 199.473 39.0567 199.506 39.0919C199.539 39.1271 199.561 39.1711 199.57 39.2187L199.975 41.022L201.697 41.7111C201.743 41.7273 201.783 41.7562 201.812 41.7943C201.841 41.8325 201.859 41.8783 201.862 41.9261C201.866 41.974 201.856 42.0219 201.833 42.064C201.81 42.1062 201.775 42.1408 201.732 42.1638L200.135 43.1065L200.01 44.9472C200.009 44.9954 199.994 45.0422 199.966 45.0819C199.939 45.1217 199.9 45.1527 199.856 45.1711C199.811 45.1896 199.762 45.1947 199.714 45.1858C199.666 45.177 199.622 45.1546 199.587 45.1213L198.192 43.9025L196.392 44.3527C196.345 44.3691 196.294 44.3711 196.246 44.3583C196.198 44.3456 196.154 44.3188 196.121 44.2813C196.089 44.2438 196.068 44.1974 196.062 44.1481C196.056 44.0987 196.065 44.0487 196.087 44.0044Z" fill="#BAB4EE"/>
<path d="M2.54263 58.5769L1.67762 57.3907L0.207619 57.428C0.170003 57.429 0.132872 57.4195 0.10038 57.4006C0.0678876 57.3817 0.0413271 57.3542 0.0236739 57.3212C0.00602065 57.2881 -0.00202984 57.2508 0.000434719 57.2135C0.00289928 57.1761 0.015775 57.1402 0.0376204 57.1097L0.902627 55.926L0.415123 54.5458C0.404424 54.5112 0.403402 54.4744 0.412163 54.4393C0.420924 54.4042 0.439142 54.3721 0.464852 54.3465C0.490562 54.321 0.522795 54.3029 0.558083 54.2941C0.593372 54.2854 0.630374 54.2864 0.665124 54.2971L2.06514 54.7497L3.23263 53.8594C3.26275 53.8366 3.29866 53.8227 3.33632 53.8192C3.37397 53.8157 3.41186 53.8228 3.44569 53.8396C3.47952 53.8565 3.50794 53.8824 3.52772 53.9144C3.54751 53.9465 3.55786 53.9834 3.55763 54.021V55.4833L4.76764 56.3139C4.79893 56.3352 4.82359 56.3648 4.83881 56.3993C4.85402 56.4339 4.85918 56.4719 4.85371 56.5093C4.84824 56.5466 4.83236 56.5816 4.80786 56.6104C4.78336 56.6392 4.75123 56.6605 4.71513 56.672L3.31762 57.1221L2.89763 58.5247C2.88546 58.5595 2.86398 58.5902 2.83549 58.6137C2.807 58.6371 2.7726 58.6524 2.73602 58.6577C2.69944 58.6631 2.66208 58.6584 2.62799 58.6442C2.59389 58.6299 2.56438 58.6067 2.54263 58.5769Z" fill="#1C155B"/>
<path d="M184.56 40.0723L184.607 42.0073L181.485 42.4252L181.202 45.2632L178.92 45.9571L179.272 47.1062L182.327 46.1785L182.595 43.4898L185.842 43.0545L185.772 40.1444L184.56 40.0723Z" fill="#BAB4EE"/>
<path d="M175.21 44.2237L173.33 43.7959L173.685 40.7091L171.013 39.7466L170.9 37.3936L169.703 37.4508L169.855 40.5972L172.388 41.5101L172.015 44.7212L174.845 45.3629L175.21 44.2237Z" fill="#F45424"/>
<path d="M194.59 56.1174L193.245 53.8964L191.088 55.0031L189.665 52.8717L187.473 53.6775L186.148 52.2549L185.425 52.9239L187.195 54.8241L189.275 54.063L190.752 56.279L192.877 55.1897L194.092 57.2018L194.59 56.1174Z" fill="#F45424"/>
<path d="M9.88513 49.2277L8.46014 47.1757H5.96016C5.89591 47.1761 5.83286 47.1584 5.7782 47.1248C5.72354 47.0912 5.67949 47.043 5.65106 46.9857C5.62264 46.9284 5.61099 46.8642 5.61746 46.8006C5.62394 46.737 5.64827 46.6765 5.68767 46.626L7.20516 44.6362L6.42765 42.2683C6.40693 42.2076 6.40384 42.1423 6.41874 42.08C6.43364 42.0176 6.46593 41.9607 6.51188 41.9157C6.55783 41.8708 6.61559 41.8397 6.67852 41.8259C6.74145 41.8122 6.80701 41.8164 6.86765 41.838L9.23264 42.6638L11.2551 41.1938C11.3072 41.1563 11.3687 41.1339 11.4329 41.1293C11.497 41.1247 11.5612 41.138 11.6181 41.1678C11.675 41.1975 11.7225 41.2425 11.7551 41.2976C11.7877 41.3528 11.8041 41.4159 11.8026 41.4799L11.7451 43.9671L13.7751 45.4271C13.8274 45.4643 13.8682 45.5153 13.8927 45.5744C13.9173 45.6335 13.9246 45.6982 13.9139 45.7613C13.9032 45.8243 13.8749 45.8831 13.8323 45.9309C13.7896 45.9787 13.7343 46.0136 13.6726 46.0316L11.2701 46.7479L10.5026 49.1183C10.4861 49.1819 10.4515 49.2394 10.403 49.284C10.3545 49.3287 10.2942 49.3585 10.2292 49.37C10.1641 49.3816 10.0972 49.3743 10.0362 49.349C9.97519 49.3238 9.92276 49.2817 9.88513 49.2277Z" fill="#F45424"/>
<path d="M70.1475 49.1682L69.8325 48.3599L71.8176 47.5963L70.4025 45.1192L71.1601 44.6914L73.0726 48.0415L70.1475 49.1682Z" fill="#BAB4EE"/>
<path d="M31.3601 38.0274L28.6651 38.913L26.7551 34.7565L22.6551 35.5699L20.7126 32.6895L19.2476 33.6695L21.8451 37.5175L25.7301 36.7489L27.7176 41.072L31.7726 39.7413L31.3601 38.0274Z" fill="#BAB4EE"/>
<path d="M123.293 33.1322L119.323 31.6399L115.845 34.0525C115.756 34.1141 115.652 34.1498 115.544 34.1556C115.436 34.1615 115.328 34.1372 115.233 34.0855C115.138 34.0338 115.059 33.9568 115.006 33.8631C114.952 33.7694 114.926 33.6627 114.93 33.5551L115.12 29.3392L111.74 26.7948C111.653 26.73 111.586 26.642 111.546 26.5409C111.507 26.4398 111.497 26.3298 111.518 26.2234C111.538 26.117 111.589 26.0185 111.663 25.9392C111.737 25.8599 111.832 25.803 111.938 25.7751L116.023 24.6534L117.413 20.6738C117.448 20.5714 117.512 20.481 117.596 20.4127C117.681 20.3445 117.783 20.3012 117.891 20.2877C117.999 20.2742 118.109 20.2911 118.207 20.3365C118.306 20.3819 118.39 20.454 118.45 20.5445L120.783 24.0664L125.033 24.1484C125.141 24.1505 125.247 24.1827 125.338 24.2414C125.43 24.3002 125.502 24.3832 125.549 24.481C125.595 24.5788 125.613 24.6875 125.6 24.7949C125.588 24.9023 125.545 25.004 125.478 25.0886L122.833 28.3867L124.065 32.4234C124.097 32.5279 124.099 32.6394 124.071 32.7449C124.042 32.8505 123.984 32.9458 123.903 33.0199C123.823 33.0941 123.722 33.144 123.614 33.1638C123.506 33.1837 123.395 33.1727 123.293 33.1322Z" fill="#6E62DB"/>
<path d="M16.21 61.6745L13.2475 61.7939L12.08 64.5696L8.74748 64.4676L8.42249 67.8078L4.64998 67.8576L3.96999 70.8944L0.347473 71.5336L0.10498 70.1681L2.81248 69.6931L3.52998 66.4871L7.15749 66.4374L7.48749 63.0449L11.165 63.1568L12.3025 60.4458L15.05 60.3364L15.425 58.3989L16.7925 58.6601L16.21 61.6745Z" fill="#4838D1"/>
<path d="M52.9476 58.4559C53.0687 59.6709 52.8249 60.8944 52.2471 61.9715C51.6693 63.0487 50.7835 63.9312 49.7016 64.5075C48.6196 65.0838 47.3903 65.3279 46.1689 65.2091C44.9475 65.0902 43.789 64.6137 42.8398 63.8398C41.8906 63.0659 41.1934 62.0293 40.8363 60.8612C40.4793 59.6931 40.4784 58.4458 40.8338 57.2772C41.1892 56.1086 41.8849 55.071 42.833 54.2958C43.781 53.5205 44.9389 53.0424 46.1601 52.9218C46.971 52.8417 47.7899 52.9214 48.5699 53.1561C49.3498 53.3909 50.0757 53.7763 50.706 54.2902C51.3363 54.8041 51.8586 55.4365 52.2433 56.1512C52.6279 56.866 52.8672 57.6491 52.9476 58.4559Z" fill="#4838D1"/>
<path d="M43.5701 60.3634C43.6129 60.7945 43.7407 61.213 43.9461 61.595C44.1516 61.9769 44.4306 62.3149 44.7673 62.5896C45.1041 62.8643 45.4919 63.0704 45.9087 63.196C46.3254 63.3216 46.763 63.3643 47.1964 63.3216C47.6298 63.279 48.0504 63.1519 48.4344 62.9475C48.8184 62.7432 49.1582 62.4656 49.4343 62.1306C49.7105 61.7957 49.9176 61.4099 50.0438 60.9953C50.1701 60.5807 50.213 60.1455 50.1702 59.7144L43.5701 60.3634Z" fill="white"/>
<path d="M93.8175 33.8264L92.0275 31.2893L91.0275 32.2842C90.922 32.389 90.7791 32.4479 90.63 32.4479C90.4809 32.4479 90.338 32.389 90.2325 32.2842C90.1804 32.2325 90.1391 32.171 90.1109 32.1034C90.0827 32.0357 90.0682 31.9632 90.0682 31.89C90.0682 31.8168 90.0827 31.7443 90.1109 31.6766C90.1391 31.609 90.1804 31.5475 90.2325 31.4958L91.395 30.3541L89.7925 28.0708L88.715 29.1254C88.663 29.1772 88.6012 29.2183 88.5332 29.2464C88.4652 29.2744 88.3924 29.2888 88.3188 29.2888C88.2452 29.2888 88.1723 29.2744 88.1043 29.2464C88.0363 29.2183 87.9745 29.1772 87.9225 29.1254C87.8704 29.0736 87.8291 29.0122 87.8009 28.9445C87.7727 28.8769 87.7582 28.8044 87.7582 28.7311C87.7582 28.6579 87.7727 28.5854 87.8009 28.5178C87.8291 28.4501 87.8704 28.3887 87.9225 28.3369L89.1525 27.1281L87.3175 24.504C87.2423 24.3958 87.2079 24.2646 87.2202 24.1336C87.2326 24.0026 87.2909 23.8801 87.385 23.7877L87.5725 23.6036C87.6305 23.5469 87.7002 23.5034 87.7768 23.476C87.8534 23.4487 87.935 23.4382 88.0161 23.4453C88.0971 23.4524 88.1756 23.4769 88.2462 23.5171C88.3168 23.5573 88.3778 23.6123 88.425 23.6782L90.175 26.1357L91.96 24.3946L90.125 21.7705C90.0498 21.6622 90.0154 21.5311 90.0277 21.4001C90.0401 21.2691 90.0984 21.1466 90.1925 21.0541L90.3975 20.8527C90.4555 20.7957 90.5253 20.752 90.602 20.7246C90.6788 20.6972 90.7606 20.6868 90.8418 20.6942C90.9229 20.7015 91.0015 20.7264 91.0721 20.7671C91.1426 20.8078 91.2033 20.8633 91.25 20.9298L93 23.3847L94 22.3898C94.052 22.338 94.1138 22.2969 94.1818 22.2689C94.2498 22.2408 94.3226 22.2264 94.3963 22.2264C94.4699 22.2264 94.5427 22.2408 94.6107 22.2689C94.6787 22.2969 94.7405 22.338 94.7925 22.3898C94.8446 22.4416 94.8859 22.503 94.9141 22.5707C94.9423 22.6383 94.9568 22.7108 94.9568 22.7841C94.9568 22.8573 94.9423 22.9298 94.9141 22.9974C94.8859 23.0651 94.8446 23.1265 94.7925 23.1783L93.63 24.3199L95.26 26.5759L96.335 25.5188C96.387 25.467 96.4488 25.4259 96.5168 25.3979C96.5848 25.3698 96.6577 25.3554 96.7313 25.3554C96.8049 25.3554 96.8777 25.3698 96.9457 25.3979C97.0137 25.4259 97.0755 25.467 97.1275 25.5188C97.2329 25.6238 97.292 25.766 97.292 25.9143C97.292 26.0626 97.2329 26.2048 97.1275 26.3098L95.8975 27.5161L97.7975 30.2074C97.8737 30.3155 97.9089 30.447 97.897 30.5786C97.8851 30.7101 97.8269 30.8333 97.7325 30.9262L97.5125 31.1426C97.4545 31.1996 97.3847 31.2433 97.308 31.2707C97.2312 31.298 97.1494 31.3084 97.0682 31.3011C96.9871 31.2937 96.9085 31.2688 96.838 31.2281C96.7674 31.1874 96.7067 31.1319 96.66 31.0655L94.8675 28.5284L93.0825 30.2695L94.9825 32.9608C95.0587 33.0689 95.0939 33.2005 95.082 33.332C95.0701 33.4636 95.0119 33.5867 94.9175 33.6796L94.6975 33.8935C94.6402 33.956 94.5692 34.0047 94.4902 34.0359C94.4111 34.0671 94.3259 34.0799 94.241 34.0734C94.1562 34.067 94.074 34.0414 94.0006 33.9985C93.9272 33.9557 93.8646 33.8968 93.8175 33.8264ZM94.2075 27.5882L92.595 25.3174L90.8125 27.0584L92.4225 29.3318L94.2075 27.5882Z" fill="#F45424"/>
<path d="M53.8274 29.4045C54.0482 28.8649 54.3872 28.381 54.8196 27.9882C55.2521 27.5953 55.7672 27.3034 56.3274 27.1337C56.7163 27.0061 57.1269 26.9577 57.5349 26.9913C57.9429 27.0249 58.3399 27.1397 58.7024 27.3291C59.0649 27.5185 59.3854 27.7784 59.6448 28.0935C59.9042 28.4086 60.0972 28.7724 60.2125 29.1633C60.81 31.0088 59.8875 33.7124 56.2774 36.9633C51.4399 36.4186 49.1074 34.7546 48.5099 32.9066C48.3749 32.5223 48.3189 32.115 48.3452 31.7087C48.3715 31.3025 48.4797 30.9057 48.6632 30.5419C48.8468 30.1781 49.1019 29.8547 49.4136 29.5909C49.7253 29.3272 50.087 29.1285 50.4774 29.0066C51.0307 28.8224 51.6181 28.7625 52.1974 28.8313C52.7766 28.9001 53.3334 29.0959 53.8274 29.4045Z" fill="#F45424"/>
<path d="M39.7426 34.7264C41.2759 34.5007 42.795 34.1877 44.2926 33.7889C44.7451 33.6689 45.5626 33.5914 45.7726 33.1214C45.8318 33.0111 45.8474 32.8826 45.8163 32.7613C45.7853 32.64 45.71 32.5348 45.6051 32.4664C45.1726 32.1814 44.5326 32.5089 44.0751 32.6314C42.6876 33.0014 41.0976 33.3539 39.4701 33.6164C39.3972 33.6341 39.3286 33.666 39.268 33.7103C39.2075 33.7546 39.1562 33.8103 39.1172 33.8744C39.0782 33.9385 39.0522 34.0096 39.0407 34.0837C39.0292 34.1578 39.0324 34.2335 39.0501 34.3064C39.0679 34.3793 39.0998 34.4479 39.144 34.5085C39.1883 34.569 39.2441 34.6203 39.3081 34.6593C39.3722 34.6983 39.4433 34.7243 39.5175 34.7358C39.5916 34.7473 39.6672 34.7441 39.7401 34.7264H39.7426Z" fill="#F45424"/>
<path d="M63.8775 32.1436C64.545 31.9786 65.2075 31.8011 65.8775 31.6236C66.5475 31.4461 67.295 31.3736 67.84 30.9911C67.9292 30.9354 67.9985 30.853 68.0382 30.7556C68.0779 30.6581 68.0858 30.5507 68.0609 30.4485C68.036 30.3463 67.9794 30.2546 67.8994 30.1864C67.8193 30.1182 67.7198 30.077 67.615 30.0686C66.9525 30.0111 66.24 30.3186 65.615 30.4886C64.99 30.6586 64.2875 30.8436 63.615 31.0311C62.9075 31.2336 63.1675 32.3211 63.885 32.1436H63.8775Z" fill="#F45424"/>
<path d="M48.1726 41.7661C48.6401 40.1544 49.5426 39.4605 50.1727 38.7217C50.2487 38.6437 50.2945 38.5413 50.3019 38.4328C50.3093 38.3243 50.2779 38.2167 50.2132 38.1291C50.1485 38.0415 50.0547 37.9795 49.9484 37.9541C49.8421 37.9287 49.7303 37.9416 49.6326 37.9905C48.2976 38.5725 47.4426 40.1245 47.0726 41.4726C46.8776 42.174 47.9651 42.4825 48.1676 41.7786L48.1726 41.7661Z" fill="#F45424"/>
<path d="M56.7626 43.2577C56.5522 42.5876 56.4857 41.8809 56.5676 41.1835C56.6201 40.7508 57.1251 39.4575 56.2901 39.4575C55.5025 39.4575 55.425 40.7632 55.3825 41.3178C55.3264 42.063 55.4112 42.8121 55.6325 43.5263C55.855 44.2252 56.9651 43.964 56.7501 43.2577H56.7626Z" fill="#F45424"/>
<path d="M61.2927 37.6175L62.6127 38.1325C63.0527 38.305 63.5077 38.6 63.9677 38.3825C64.0815 38.3187 64.1659 38.2129 64.2028 38.0877C64.2397 37.9625 64.2262 37.8279 64.1651 37.7125C63.9926 37.2775 63.3326 37.1675 62.9301 37.0125L61.6077 36.5125C61.5343 36.4918 61.4575 36.4858 61.3818 36.4948C61.3061 36.5037 61.2329 36.5275 61.1664 36.5648C61.0999 36.602 61.0414 36.652 60.9942 36.7119C60.947 36.7718 60.9121 36.8404 60.8914 36.9137C60.8707 36.9871 60.8647 37.0639 60.8737 37.1396C60.8826 37.2153 60.9064 37.2884 60.9437 37.355C60.9809 37.4215 61.0309 37.48 61.0908 37.5272C61.1507 37.5744 61.2193 37.6093 61.2927 37.63V37.6175Z" fill="#F45424"/>
<path d="M48.1826 26.5412C45.8801 23.5293 45.9026 23.5044 45.5451 23.3079C45.4603 23.2547 45.3613 23.2282 45.2611 23.2318C45.1608 23.2353 45.064 23.2687 44.9831 23.3277C44.9022 23.3867 44.8411 23.4686 44.8076 23.5626C44.774 23.6567 44.7697 23.7586 44.7952 23.8551C44.9052 24.2729 44.8952 24.2008 47.3276 27.362C47.4365 27.4729 47.5849 27.5367 47.7407 27.5395C47.8966 27.5422 48.0472 27.4839 48.1601 27.3769C48.2698 27.2676 48.3327 27.1203 48.3355 26.9658C48.3383 26.8114 48.2808 26.6618 48.1751 26.5487L48.1826 26.5412Z" fill="#F45424"/>
<path d="M54.2401 24.9225C54.3143 24.3049 54.321 23.681 54.2601 23.0619C54.2026 22.4849 54.1952 21.5944 53.5776 21.3431C53.5026 21.3202 53.4227 21.3181 53.3465 21.3369C53.2703 21.3558 53.2007 21.3949 53.1451 21.4501C52.7551 21.8929 53.0526 22.6217 53.1026 23.154C53.1522 23.7333 53.1522 24.3158 53.1026 24.8952C53.0963 24.9724 53.1059 25.0502 53.131 25.1236C53.156 25.197 53.1959 25.2645 53.2482 25.322C53.3005 25.3794 53.3641 25.4256 53.4351 25.4577C53.506 25.4897 53.5828 25.507 53.6607 25.5083C53.7386 25.5097 53.816 25.4952 53.888 25.4656C53.9601 25.436 54.0253 25.3921 54.0796 25.3365C54.1339 25.2809 54.1761 25.2148 54.2037 25.1423C54.2314 25.0699 54.2437 24.9925 54.2401 24.9151V24.9225Z" fill="#F45424"/>
<path d="M62.9501 23.2433C62.9826 22.9597 62.7001 22.7707 62.4651 22.7459C61.9651 22.6862 61.4651 23.283 61.1476 23.6113C60.7708 23.9919 60.4263 24.4029 60.1176 24.8399C60.0792 24.9052 60.0541 24.9774 60.0437 25.0524C60.0334 25.1274 60.0379 25.2036 60.0572 25.2769C60.0765 25.3501 60.1101 25.4188 60.156 25.4791C60.202 25.5394 60.2594 25.5901 60.3251 25.6283C60.3908 25.6665 60.4633 25.6915 60.5387 25.7018C60.6141 25.7121 60.6907 25.7075 60.7643 25.6884C60.8379 25.6692 60.907 25.6358 60.9676 25.5901C61.0282 25.5443 61.0792 25.4872 61.1176 25.4219C62.3451 23.8153 62.8726 23.9421 62.9501 23.2433Z" fill="#F45424"/>
<path d="M81.4525 30.6875L81.5 32.6225L78.3776 33.0404L78.0951 35.8783L75.8101 36.5697L76.1626 37.7213L79.2201 36.7936L79.4876 34.1049L82.7325 33.6697L82.6625 30.7571L81.4525 30.6875Z" fill="#4838D1"/>
<path d="M202.17 178.089C202.17 177.607 201.978 177.214 201.74 177.214H15.9277C15.6452 177.214 15.4277 177.607 15.4277 178.089C15.4277 178.572 15.6552 178.962 15.9277 178.962H201.74C201.99 178.962 202.17 178.572 202.17 178.089Z" fill="#1C155B"/>
</svg>
