<svg width="203" height="179" viewBox="0 0 203 179" fill="none" xmlns="http://www.w3.org/2000/svg">
<path d="M185.887 177.448C205.85 164.711 207.155 102.949 168.548 88.493C129.94 74.0368 137.095 37.5582 104.615 10.2901C75.0076 -14.5654 26.0276 6.50446 9.71514 71.1441C-1.91734 117.236 11.6551 175.056 20.9176 177.448H185.887Z" fill="#F8F8FD"/>
<path d="M81.6051 73.0316C80.7776 70.3802 81.1476 67.5598 79.3551 65.1671C78.7251 64.3264 78.0701 63.8762 77.485 62.9609C76.54 61.486 74.355 59.2699 73.675 58.3496C73.6154 58.2926 73.5685 58.2237 73.5375 58.1474C73.5065 58.0711 73.492 57.9891 73.495 57.9069C73.565 57.5587 74.0225 57.3199 74.4075 57.3199C74.7445 57.3509 75.0617 57.4917 75.31 57.7203C76.31 58.4292 78.1876 60.0981 78.6101 59.6604C79.1101 59.1455 79.0276 57.7154 78.165 55.0988C77.3025 52.4823 75.7675 48.6122 76.7175 48.4754C77.6675 48.3386 80.3251 55.5515 80.7376 55.5341C81.1501 55.5167 80.9326 46.8885 81.8951 46.503C82.8576 46.1175 82.7726 54.584 83.0726 54.9595C83.3726 55.3351 85.4851 47.177 86.3226 47.4084C87.4401 47.7143 85.0301 54.8003 85.4326 55.3674C85.8351 55.9345 87.9776 50.5223 88.9776 50.209C89.9776 49.8956 88.8201 53.5542 87.9101 55.4843C87.2226 56.9418 87.2726 61.5009 87.3426 62.543C87.4126 63.5852 86.5251 65.5675 86.8126 67.2115C87.1001 68.8556 87.7176 69.45 87.7176 69.45L81.6051 73.0316Z" fill="#FBC6B6"/>
<path d="M70.9175 103.977L85.9825 98.1545L79.65 69.5675L88.4375 66.6548C88.4375 66.6548 96.8276 100.045 96.9851 102.251C97.1426 104.457 79.0175 121.155 79.0175 121.155L70.9175 103.977Z" fill="#4838D1"/>
<path d="M31.2402 69.408C30.9352 67.9678 30.3002 66.6197 29.8302 65.2244C29.4552 64.12 29.1902 62.6276 29.3477 61.4512C29.4877 60.4115 29.8477 59.7101 29.9027 58.6157C29.9557 57.9288 30.0526 57.2458 30.1927 56.5711C30.3327 55.825 30.4952 55.1086 30.6527 54.3774C30.7702 53.8376 30.9027 53.2929 30.9702 52.7433C30.9937 52.6642 31.0005 52.5812 30.9902 52.4995C30.9799 52.4177 30.9527 52.339 30.9102 52.2682C30.8018 52.1557 30.6562 52.0859 30.5002 52.0717C30.2682 52.0419 30.0327 52.0863 29.8277 52.1985C29.5482 52.3891 29.3399 52.6663 29.2352 52.987C28.9852 53.5342 28.7527 54.0963 28.5027 54.6485C28.3113 55.153 28.0486 55.6279 27.7227 56.0588C27.6252 56.1732 27.4727 56.3324 27.3052 56.2801C26.6177 56.0712 25.9852 54.7878 25.4577 52.0791C24.9302 49.3705 24.3752 45.2541 23.4777 45.5973C22.5802 45.9406 23.7952 53.5243 23.4252 53.7083C23.0552 53.8924 19.0202 46.2465 17.9902 46.3833C16.9602 46.5201 21.1827 53.865 21.1027 54.3426C21.0227 54.8201 15.1852 48.7163 14.5602 49.3282C13.7352 50.1366 19.3102 55.1559 19.2302 55.8399C19.1502 56.5239 14.4802 54.6311 13.4527 54.845C12.4252 55.0589 15.1677 56.8348 16.7027 57.3646C18.2377 57.8944 20.6327 62.0904 21.0827 63.0331C21.5327 63.9758 23.2777 65.2716 23.8327 66.8535C24.3877 68.4354 24.1427 69.2562 24.1427 69.2562L31.2402 69.408Z" fill="#FBC6B6"/>
<path d="M77.4827 167.268C77.4817 167.276 77.4817 167.285 77.4827 167.293V167.268Z" fill="#FEECE7"/>
<path d="M88.9377 150.387C88.5177 149.546 88.1202 148.773 87.7377 148.044C84.2377 149.25 80.2602 150.591 76.1802 151.971L77.4827 167.271C77.4827 166.952 78.7327 171.909 80.0952 177.401H95.4476C94.0276 167.885 91.7676 156.078 88.9377 150.387Z" fill="#6E62DB"/>
<path d="M76.1801 151.968C69.3826 154.267 63.1402 156.473 57.3052 158.582C58.4902 164.134 60.0402 171.192 61.3727 177.398H81.1826C81.3801 170.819 81.2401 163.808 80.5651 157.997L76.1801 151.968Z" fill="#BAB4EE"/>
<path d="M73.6126 104.049L68.7676 104.076C68.7676 104.076 60.1876 104.544 58.6151 104.745C58.4776 104.763 55.8801 135.282 55.7201 146.671C55.6162 153.478 56.1814 160.279 57.4076 166.977C57.4076 166.977 68.3901 166.673 76.01 165.086C83.9325 163.437 94.215 159.575 94.215 159.575C94.215 159.575 82.13 132.297 79.965 125.728C77.8 119.159 73.6126 104.049 73.6126 104.049Z" fill="white"/>
<path d="M85.9875 126.273L74.585 103.768L68.7275 104.016C68.7275 104.016 74.0025 113.043 77.0625 122.047C80.1225 131.051 92.7925 164.622 92.7925 164.622C92.7925 164.622 97.3675 164.729 98.2525 161.906C99.1375 159.083 85.9875 126.273 85.9875 126.273Z" fill="#4838D1"/>
<path d="M58.6526 104.743L42.2926 87.5183C42.2926 87.5183 30.8852 65.4611 30.5777 64.7074C30.2702 63.9538 24.3752 65.6799 22.5052 66.8067C22.0052 67.1101 32.3201 94.8955 32.3201 94.8955L45.6251 111.637C45.6251 111.637 51.3751 121.368 51.6026 129.379C51.9976 142.684 50.0501 167.579 50.6826 168.079C54.4551 169.867 67.3051 172.805 69.3626 168.079C76.5076 151.673 58.6526 104.743 58.6526 104.743Z" fill="#4838D1"/>
<path d="M57.0127 95.9451L58.6527 104.743C58.6527 104.743 65.1777 115.463 68.4027 113.881C71.1177 112.553 68.8677 104.322 68.8677 104.322C68.8677 104.322 68.0152 102.412 67.3127 100.241C66.8127 98.7234 66.4102 97.0768 66.4152 95.863C66.4402 92.9106 57.0127 95.9451 57.0127 95.9451Z" fill="#F9A085"/>
<path d="M66.4275 95.8634C66.44 92.911 58.72 96.045 58.72 96.045V96.9105C59.0055 97.3989 59.3763 97.8327 59.815 98.1915C61.905 99.8157 64.885 100.522 67.3151 100.229C66.8351 98.7138 66.4225 97.0722 66.4275 95.8634Z" fill="#F77A55"/>
<path d="M67.5825 77.3623C67.5825 77.3623 70.21 82.6604 69.925 86.8019C69.64 90.9434 68.405 93.6372 68.405 93.6372L59.5425 79.8795L67.5825 77.3623Z" fill="#1C155B"/>
<path d="M55.9151 81.4393C55.6826 81.3597 54.1651 93.326 57.2901 96.5844C60.4151 99.8427 66.4501 100.865 68.5851 98.2534C70.9475 95.3656 70.705 82.5212 65.8651 79.1858C61.0251 75.8503 55.9151 81.4393 55.9151 81.4393Z" fill="#F9A085"/>
<path d="M55.9852 73.9075C53.0252 75.8973 51.5202 77.4221 49.1902 81.3197C46.3227 86.1128 50.0377 91.9282 53.4402 94.4876C56.8427 97.0471 56.8252 99.9374 56.8252 99.9374L57.3577 98.4848C57.7427 97.3083 56.0227 92.1844 55.7077 91.5327C54.8752 89.809 54.7077 89.4384 55.4227 87.9932C55.9652 86.8789 55.8402 84.2622 56.6952 82.4166L61.7927 81.9863C61.7927 81.9863 64.9902 81.6406 66.7927 80.0412C71.9602 75.4471 63.8052 68.5548 55.9852 73.9075Z" fill="#1C155B"/>
<path d="M56.4451 89.4482C56.8876 90.8386 56.5876 92.1842 55.7751 92.4329C54.9626 92.6817 53.9451 91.7688 53.5026 90.3784C53.0601 88.988 53.3626 87.6424 54.1751 87.3937C54.9876 87.145 56.0026 88.0628 56.4451 89.4482Z" fill="#F9A085"/>
<path d="M144.898 99.2556C144.898 99.2556 147.023 75.7134 147.523 70.9528C148.023 66.1921 145.69 50.7062 145.623 50.0347C145.555 49.3631 137.755 44.784 138.623 44.0652C139.49 43.3464 142.483 46.6022 143.298 45.6272C144.113 44.6522 142.53 33.9792 143.355 34.1359C144.895 34.4294 144.583 40.6327 145.328 40.6402C146.073 40.6476 145.033 34.1359 146.28 33.7181C147.528 33.3002 146.668 39.9711 147.215 40.2497C147.763 40.5282 148.895 34.0787 150.035 34.7627C150.655 35.1333 148.883 40.4711 149.738 40.4611C150.593 40.4512 152.605 36.5685 153.275 37.0635C153.945 37.5584 151.133 40.0979 151.055 42.3713C150.978 44.6447 149.7 46.2465 150.678 49.8954C151.655 53.5442 157.323 66.6448 156.793 74.3778C156.263 82.1107 154.473 98.5666 154.473 98.5666L144.898 99.2556Z" fill="#F9A085"/>
<path d="M144.913 78.1582L157.615 80.8743L157.14 108.279L145.98 104.379L144.913 78.1582Z" fill="#4838D1"/>
<path d="M100.743 95.3857C104.625 106.516 116.628 103.522 116.633 103.522C116.978 103.569 118.15 104.559 119.22 105.041C123.757 107.086 129.47 107.449 133.148 104.151C140.215 106.606 148.057 101.291 148.502 95.0549C153.102 92.8984 153.29 88.3988 152.185 83.3073C154.3 76.9174 147.347 70.0648 140.842 69.4405C139.174 69.3017 137.495 69.4995 135.905 70.0223C134.316 70.545 132.849 71.3818 131.592 72.4825C126.317 69.7041 120 71.3109 116.358 76.109C104.82 70.7389 96.68 83.7276 100.743 95.3857Z" fill="#F45424"/>
<path d="M174.58 177.399H193.65C193.57 176.735 193.505 176.245 193.463 175.954C192.775 171.054 159.758 139.022 159.758 139.022L142.968 156.563C142.968 156.563 153.633 164.614 157.63 167.601C160.095 169.447 168.445 174.001 174.58 177.399Z" fill="#1C155B"/>
<path d="M160.102 177.398C162.933 164.661 164.9 152.705 164.89 152.707C165.928 149.568 164.41 142.865 164.41 142.865L146.952 138.231C147.022 138.254 146.952 138.943 146.952 138.998C146.285 145.464 140.812 153.424 138.935 164.773C138.382 168.111 138.335 172.921 138.467 177.398H160.102Z" fill="#1C155B"/>
<path d="M163.08 119.709C162.863 116.122 163.308 108.551 162.99 107.397C162.99 107.302 163.015 107.205 163.033 107.108L149.783 97.8852C149.738 97.8852 149.913 97.8554 149.465 97.9126C146.575 98.2931 136.835 101.228 135.035 102.076L135.368 114.371C136.438 114.906 144.26 147.453 142.175 150.756C141.155 152.375 167.868 151.407 168.613 148.236C168.933 146.861 163.518 126.957 163.08 119.709Z" fill="#6E62DB"/>
<path d="M142.438 94.7117C142.438 94.7117 143.548 100.313 143.65 102.559C143.753 104.805 146.488 111.69 151.005 111.085C155.523 110.481 150.938 101.8 150.208 99.6863C149.478 97.5721 148.08 90.936 148.08 90.936L142.438 94.7117Z" fill="#F9A085"/>
<path d="M148.793 94.1941C147.7 95.9997 145.738 97.1562 142.828 96.8005C142.61 95.5943 142.435 94.7114 142.435 94.7114L148.078 90.936C148.078 90.936 148.39 92.4133 148.793 94.1941Z" fill="#F77A55"/>
<path d="M137.713 78.4445C136.229 79.7387 135.254 81.5147 134.963 83.4565C134.493 86.6901 136.653 94.56 143.343 95.6022C150.033 96.6444 151.92 89.9087 149.903 85.1305C147.885 80.3523 144.118 74.4672 137.713 78.4445Z" fill="#F9A085"/>
<path d="M150.352 83.6326C150.41 84.9013 149.88 85.9511 149.17 85.976C148.46 86.0009 147.835 84.9958 147.777 83.737C147.72 82.4783 148.25 81.421 148.96 81.3936C149.67 81.3663 150.292 82.3663 150.352 83.6326Z" fill="#F9A085"/>
<path d="M138.867 76.5146C138.867 76.5146 138.967 86.4364 136.182 88.6178C133.397 90.7991 135.275 94.9454 135.275 94.9454C135.275 94.9454 131.117 85.2873 133.06 81.7305C135.002 78.1737 138.867 76.5146 138.867 76.5146Z" fill="#F45424"/>
<path d="M138.103 90.4428C138.963 91.4379 139.143 92.729 138.5 93.3236C137.857 93.9182 136.64 93.5973 135.78 92.6022C134.92 91.6071 134.74 90.3159 135.38 89.7188C136.02 89.1218 137.24 89.4477 138.103 90.4428Z" fill="#F9A085"/>
<path d="M139.76 100.785C139.76 100.785 128.66 80.8498 125.958 76.6115C123.255 72.3731 116.24 55.544 115.99 54.8799C115.74 54.2158 120.92 46.2938 119.773 46.0177C118.625 45.7416 117.335 50.1939 116.115 49.6566C114.895 49.1194 111.365 38.3568 110.67 38.8866C109.36 39.8815 112.565 45.56 111.868 45.9132C111.17 46.2664 109.093 39.6651 107.725 39.8517C106.358 40.0382 110.295 45.9058 109.91 46.4206C109.525 46.9355 105.435 41.4063 104.685 42.5778C104.278 43.212 108.435 47.4056 107.64 47.8011C106.845 48.1966 103.12 45.4779 102.723 46.2515C102.325 47.025 106.16 48.1095 107.298 50.2088C108.435 52.3081 110.388 53.2209 111.18 57.1036C111.973 60.9862 113.12 75.0121 117.248 82.0362C121.375 89.0604 130.448 104.591 130.448 104.591L139.76 100.785Z" fill="#F9A085"/>
<path d="M143.448 99.4869C140.238 95.5868 132.068 85.0605 132.068 85.0605C132.068 85.0605 123.73 90.6719 122.83 93.6268C122.83 93.6268 137.955 116.331 136.83 116.779C136.838 116.784 144.543 100.808 143.448 99.4869Z" fill="#6E62DB"/>
<path d="M138.858 97.8352C137.108 93.077 137.195 78.8448 133 75.1536C128.885 71.5346 119.803 70.3805 115.39 73.6613C111.283 76.7206 109.69 82.1355 108.028 87.1274C106.965 90.3236 105.625 92.2811 102.878 94.1988C98.0851 97.5467 84.5776 102.561 80.3951 106.546C72.6826 113.896 74.3951 128.484 78.4951 133.953C97.8501 159.726 124.295 144.027 127.933 127.123C129.195 121.27 146.225 117.883 138.858 97.8352Z" fill="#1C155B"/>
<path d="M95.3401 104.208L86.1626 99.0367C86.4301 98.1636 86.6451 97.4274 86.7951 96.8752C88.3726 91.0873 97.6276 71.3632 98.0126 70.6096C98.3976 69.8559 109.595 68.0079 108.915 66.7792C108.235 65.5505 103.28 66.6299 103.043 65.9833C102.495 64.4909 108.925 53.231 107.893 53.0494C105.958 52.6987 103.508 60.0934 102.63 59.7651C101.753 59.4367 105.93 52.3032 104.663 51.2437C103.395 50.1841 101.37 58.3797 100.603 58.4568C99.8351 58.5339 101.44 50.4975 99.7951 50.7736C98.9051 50.9278 98.5451 57.9643 97.5451 57.5713C96.5451 57.1783 95.9601 51.7311 94.9526 52.0072C93.9451 52.2833 96.0401 57.4469 95.1001 60.1382C94.1601 62.8294 94.9601 64.3491 92.1601 68.1745C89.3601 72 72.0426 98.4546 73.7926 103.128C75.2201 106.914 89.2751 114.609 90.8101 114.43C96.6901 113.739 95.3401 104.208 95.3401 104.208Z" fill="#F9A085"/>
<path d="M178.75 70.2714C178.722 67.1995 177.957 61.2673 176.75 57.218C176.552 56.5589 173.192 52.4921 172.902 52.0892C172.612 51.6863 170.172 49.8307 169.85 51.2933C169.757 51.7136 171.878 53.8278 172.667 54.6486C172.023 53.8203 168.845 51.4151 168.287 51.6141C167.205 52.0171 170.688 55.8674 171.808 56.8623C172.703 57.6583 172.418 60.9166 172.268 62.1926C172.215 62.6428 171.83 63.8491 171.975 63.4213C172 63.3417 171.255 61.4514 170.975 60.4366C170.79 59.7725 170.293 59.459 169.93 59.8073C169.028 60.6704 169.77 66.4956 170.18 67.3338C170.68 68.3288 171.905 70.055 172.375 70.7116C172.375 70.7116 168.375 99.4822 167.35 99.9548C164.943 101.062 143.308 107.136 143.308 107.136C143.308 107.136 142.778 120.709 143.365 120.353C143.953 119.997 173.76 109.879 175.667 107.419C178.417 103.877 179.093 87.8416 178.648 77.1363C178.63 72.9253 178.752 70.2962 178.75 70.2714Z" fill="#FBC6B6"/>
<path d="M175.702 62.8345L176.005 63.152C176.086 63.3301 176.128 63.5237 176.128 63.7195C176.128 63.9153 176.086 64.1088 176.005 64.287C175.837 64.617 175.605 64.632 174.197 64.842C173.18 64.992 171.875 64.8145 169.922 64.5245L175.702 62.8345Z" fill="#F77A55"/>
<path d="M175.973 63.0832L171.63 50.8528C171.56 50.6676 171.42 50.5166 171.24 50.4318C171.06 50.3469 170.854 50.3347 170.665 50.3977L170.18 50.5594L165.808 52.1935C165.731 52.2199 165.661 52.2612 165.601 52.3151C165.541 52.369 165.493 52.4343 165.459 52.5071C165.425 52.58 165.406 52.6589 165.403 52.7392C165.4 52.8195 165.414 52.8996 165.443 52.9746L170.128 64.8492L174.315 64.3791L175.5 63.9986C175.593 63.971 175.678 63.925 175.753 63.8636C175.827 63.8021 175.888 63.7264 175.932 63.6409C175.976 63.5555 176.003 63.462 176.009 63.3662C176.016 63.2703 176.004 63.1741 175.973 63.0832Z" fill="#1C155B"/>
<path d="M169.397 59.8499C168.871 60.881 168.515 61.9895 168.342 63.133C168.077 64.9685 171.15 69.2863 171.705 69.7066C172.26 70.127 172.22 67.5154 172.22 67.5154C172.22 67.5154 172.59 65.1526 172.007 64.8641C171.425 64.5756 170.532 63.526 170.532 63.526C170.532 63.526 171.06 58.0392 169.397 59.8499Z" fill="#FBC6B6"/>
<path d="M175.585 58.4989L174.555 56.136C174.555 56.136 172.18 51.843 170.755 52.4349C169.33 53.0269 173.565 56.912 173.565 56.912C174.554 59.2488 175.411 61.6386 176.133 64.0704L176.77 62.7771L175.585 58.4989Z" fill="#FBC6B6"/>
<path d="M139.343 177.398L135.248 165.402L105.567 162.326C105.567 162.326 100.022 172.64 98.23 177.391L139.343 177.398Z" fill="#F45424"/>
<path d="M157.042 117.987L153.007 103.735L128.578 106.72C128.578 106.72 121.718 106.282 118.023 106.399C115.403 106.483 99.64 103.18 89.7125 100.735C89.655 100.867 86.6776 110.336 84.9351 113.644C92.3876 117.355 98.085 119.176 103.22 123.566C103.22 123.586 103.875 144.589 104.395 157.473C103.278 160.677 100.473 167.173 100.473 167.173C100.473 167.173 109.615 172.369 123.505 171.188C128.367 170.794 133.179 169.924 137.87 168.591C137.87 168.591 135.308 159.366 134.62 153.981C137.605 140.773 142.398 123.183 142.398 123.183L157.042 117.987Z" fill="white"/>
<path d="M120.125 94.7358C120.125 94.7358 119.34 103.74 118.33 106.235C117.32 108.729 117.473 117.701 122.93 119.32C128.388 120.94 128.288 109.426 128.515 106.759C128.743 104.093 128.99 95.3651 128.99 95.3651L120.125 94.7358Z" fill="#F9A085"/>
<path d="M119.85 97.4696C120.431 98.0932 121.091 98.6392 121.813 99.094C124.455 100.768 126.88 100.746 128.847 99.7433C128.932 97.3652 128.99 95.3652 128.99 95.3652L120.125 94.7358C120.125 94.7358 120.025 95.8826 119.85 97.4696Z" fill="#F77A55"/>
<path d="M123.155 76.4051C120.985 77.0066 119.101 78.3597 117.845 80.2205C115.818 83.2973 114.345 92.9752 121.02 97.2035C127.695 101.432 132.97 94.8307 133.055 88.9956C133.14 83.1605 131.885 75.3778 123.155 76.4051Z" fill="#F9A085"/>
<path d="M135.01 86.4638C134.865 87.976 134.03 89.1326 133.145 89.048C132.26 88.9634 131.66 87.6701 131.805 86.1604C131.95 84.6506 132.788 83.4916 133.67 83.5761C134.553 83.6607 135.155 84.954 135.01 86.4638Z" fill="#F9A085"/>
<path d="M124.455 75.6358C124.455 75.6358 120.27 84.9758 116.593 85.809C112.915 86.6423 112.97 91.3434 112.97 91.3434C112.97 91.3434 113.053 80.4911 116.498 78.0013C119.943 75.5114 124.455 75.6358 124.455 75.6358Z" fill="#1C155B"/>
<path d="M118.16 88.013C118.645 89.5301 118.2 91.0249 117.16 91.3483C116.12 91.6716 114.91 90.709 114.41 89.1919C113.91 87.6747 114.368 86.1824 115.41 85.8566C116.453 85.5308 117.675 86.4983 118.16 88.013Z" fill="#F9A085"/>
<path d="M102.625 66.1292C102.625 66.1292 98.9652 63.6967 96.8477 66.8792C96.8477 66.8842 99.5427 64.8217 102.625 66.1292Z" fill="#F77A55"/>
<path d="M133.913 25.1396L133.983 27.4776L130.213 28.0049L129.89 31.4347L127.135 32.2878L127.57 33.6757L131.255 32.5365L131.56 29.2833L135.48 28.7361L135.375 25.2168L133.913 25.1396Z" fill="#BAB4EE"/>
<path d="M169.482 31.7779L156.415 29.3553C155.675 29.2176 155.021 28.7934 154.595 28.176C154.169 27.5585 154.008 26.7982 154.145 26.0621L155.515 18.742C155.653 18.0055 156.079 17.3537 156.699 16.9298C157.32 16.5058 158.085 16.3444 158.825 16.481L171.892 18.9036C172.259 18.9715 172.608 19.1105 172.921 19.3128C173.233 19.515 173.502 19.7765 173.713 20.0824C173.924 20.3882 174.072 20.7323 174.149 21.0951C174.226 21.4579 174.231 21.8323 174.162 22.1968L172.792 29.5169C172.655 30.2533 172.229 30.9052 171.608 31.3292C170.987 31.7531 170.223 31.9145 169.482 31.7779Z" fill="#4838D1"/>
<path d="M155.413 22.4434L148.83 27.1028L155.93 27.0456L155.413 22.4434Z" fill="#4838D1"/>
<path d="M160.58 22.5398L162.26 22.8084C162.26 22.8084 164.653 21.6146 164.818 21.0675C164.983 20.5203 164.845 19.2917 165.2 19.2022C165.48 19.121 165.78 19.1518 166.037 19.288C166.294 19.4241 166.487 19.6549 166.575 19.9309C166.798 20.5203 166.185 22.4179 166.358 22.5846C166.465 22.6866 167.428 22.8681 168.133 22.99C168.363 23.0255 168.578 23.1241 168.755 23.2748C168.931 23.4255 169.062 23.6223 169.133 23.8431C169.18 23.989 169.175 24.1465 169.119 24.2895C169.064 24.4325 168.961 24.5523 168.828 24.629L168.398 24.8777L168.623 25.3179C168.703 25.4756 168.717 25.6586 168.663 25.8269C168.608 25.9951 168.488 26.1349 168.33 26.2157L167.995 26.3873L168.155 26.6535C168.204 26.7339 168.235 26.8237 168.247 26.9169C168.258 27.0102 168.25 27.1048 168.223 27.1947C168.195 27.2845 168.149 27.3676 168.087 27.4385C168.025 27.5094 167.948 27.5664 167.863 27.606L167.568 27.7428L167.593 27.8224C167.646 27.9811 167.637 28.154 167.569 28.3068C167.5 28.4597 167.377 28.5815 167.223 28.6481L166.928 28.7725L162.45 28.0587C162.03 27.9933 161.629 27.8426 161.27 27.616L159.738 27.1036C159.658 27.0774 159.59 27.0235 159.547 26.9519C159.504 26.8802 159.488 26.7955 159.503 26.7132L160.19 22.8258C160.206 22.7376 160.255 22.6588 160.328 22.6056C160.4 22.5524 160.491 22.5289 160.58 22.5398Z" fill="white"/>
<path d="M196.087 43.6817L196.822 41.9855L195.835 40.421C195.806 40.3806 195.79 40.3326 195.789 40.2831C195.788 40.2336 195.802 40.185 195.829 40.1433C195.855 40.1016 195.894 40.0689 195.94 40.0492C195.985 40.0296 196.036 40.0239 196.085 40.033L197.935 40.2071L199.125 38.7894C199.154 38.751 199.194 38.7219 199.24 38.7057C199.286 38.6896 199.335 38.687 199.382 38.6984C199.43 38.7097 199.473 38.7345 199.506 38.7696C199.539 38.8048 199.561 38.8488 199.57 38.8964L199.975 40.6996L201.697 41.3885C201.743 41.4047 201.783 41.4336 201.812 41.4718C201.841 41.51 201.859 41.5557 201.862 41.6036C201.866 41.6514 201.856 41.6993 201.833 41.7415C201.81 41.7836 201.775 41.8183 201.732 41.8412L200.135 42.7838L200.01 44.6243C200.009 44.6725 199.994 44.7193 199.966 44.7591C199.939 44.7988 199.9 44.8298 199.856 44.8482C199.811 44.8667 199.762 44.8718 199.714 44.863C199.666 44.8541 199.622 44.8317 199.587 44.7984L198.192 43.5797L196.392 44.0299C196.345 44.0463 196.294 44.0483 196.246 44.0355C196.198 44.0228 196.154 43.996 196.121 43.9585C196.089 43.921 196.068 43.8746 196.062 43.8253C196.056 43.7759 196.065 43.7259 196.087 43.6817Z" fill="#BAB4EE"/>
<path d="M2.54263 58.255L1.67762 57.0686L0.207619 57.1059C0.170003 57.1068 0.132872 57.0974 0.10038 57.0785C0.0678876 57.0596 0.0413271 57.0321 0.0236739 56.999C0.00602065 56.966 -0.00202984 56.9287 0.000434719 56.8913C0.00289928 56.8539 0.015775 56.818 0.0376204 56.7875L0.902627 55.6036L0.415123 54.2231C0.404424 54.1886 0.403402 54.1517 0.412163 54.1166C0.420924 54.0815 0.439142 54.0495 0.464852 54.0239C0.490562 53.9983 0.522795 53.9802 0.558083 53.9715C0.593372 53.9627 0.630374 53.9638 0.665124 53.9744L2.06514 54.4271L3.23263 53.5366C3.26275 53.5139 3.29866 53.5 3.33632 53.4965C3.37397 53.493 3.41186 53.5001 3.44569 53.5169C3.47952 53.5337 3.50794 53.5596 3.52772 53.5917C3.54751 53.6238 3.55786 53.6607 3.55763 53.6983V55.1609L4.76764 55.9916C4.79893 56.0129 4.82359 56.0425 4.83881 56.077C4.85402 56.1116 4.85918 56.1497 4.85371 56.187C4.84824 56.2243 4.83236 56.2593 4.80786 56.2881C4.78336 56.3169 4.75123 56.3383 4.71513 56.3498L3.31762 56.8L2.89763 58.2028C2.88546 58.2375 2.86398 58.2683 2.83549 58.2918C2.807 58.3152 2.7726 58.3305 2.73602 58.3358C2.69944 58.3412 2.66208 58.3365 2.62799 58.3223C2.59389 58.308 2.56438 58.2848 2.54263 58.255Z" fill="#1C155B"/>
<path d="M184.56 39.75L184.607 41.6851L181.485 42.103L181.202 44.9409L178.92 45.6348L179.272 46.7839L182.327 45.8562L182.595 43.1675L185.842 42.7322L185.772 39.8221L184.56 39.75Z" fill="#BAB4EE"/>
<path d="M175.21 43.9012L173.33 43.4734L173.685 40.3867L171.013 39.4242L170.9 37.0713L169.703 37.1285L169.855 40.2748L172.388 41.1876L172.015 44.3986L174.845 45.0403L175.21 43.9012Z" fill="#F45424"/>
<path d="M194.59 55.7952L193.245 53.5742L191.088 54.6809L189.665 52.5494L187.473 53.3553L186.148 51.9326L185.425 52.6017L187.195 54.5019L189.275 53.7408L190.752 55.9569L192.877 54.8675L194.092 56.8796L194.59 55.7952Z" fill="#F45424"/>
<path d="M9.88513 48.9053L8.46014 46.8533H5.96016C5.89591 46.8537 5.83286 46.8361 5.7782 46.8025C5.72354 46.7689 5.67949 46.7207 5.65106 46.6633C5.62264 46.606 5.61099 46.5419 5.61746 46.4783C5.62394 46.4147 5.64827 46.3542 5.68767 46.3037L7.20516 44.3139L6.42765 41.9461C6.40693 41.8854 6.40384 41.8201 6.41874 41.7577C6.43364 41.6953 6.46593 41.6384 6.51188 41.5935C6.55783 41.5485 6.61559 41.5174 6.67852 41.5037C6.74145 41.4899 6.80701 41.4941 6.86765 41.5158L9.23264 42.3415L11.2551 40.8716C11.3072 40.834 11.3687 40.8116 11.4329 40.807C11.497 40.8024 11.5612 40.8158 11.6181 40.8455C11.675 40.8753 11.7225 40.9202 11.7551 40.9754C11.7877 41.0305 11.8041 41.0936 11.8026 41.1576L11.7451 43.6448L13.7751 45.1048C13.8274 45.1419 13.8682 45.193 13.8927 45.252C13.9173 45.3111 13.9246 45.3759 13.9139 45.4389C13.9032 45.502 13.8749 45.5607 13.8323 45.6085C13.7896 45.6563 13.7343 45.6912 13.6726 45.7092L11.2701 46.4255L10.5026 48.7959C10.4861 48.8595 10.4515 48.917 10.403 48.9616C10.3545 49.0063 10.2942 49.0361 10.2292 49.0477C10.1641 49.0592 10.0972 49.0519 10.0362 49.0267C9.97519 49.0014 9.92276 48.9593 9.88513 48.9053Z" fill="#F45424"/>
<path d="M70.1475 48.8464L69.8325 48.0379L71.8176 47.2742L70.4025 44.7965L71.1601 44.3687L73.0726 47.7195L70.1475 48.8464Z" fill="#BAB4EE"/>
<path d="M31.3601 37.7055L28.6651 38.591L26.7551 34.4347L22.6551 35.248L20.7126 32.3677L19.2476 33.3477L21.8451 37.1956L25.7301 36.427L27.7176 40.75L31.7726 39.4193L31.3601 37.7055Z" fill="#BAB4EE"/>
<path d="M123.293 32.8102L119.323 31.3178L115.845 33.7305C115.756 33.7921 115.652 33.8278 115.544 33.8336C115.436 33.8395 115.328 33.8152 115.233 33.7635C115.138 33.7118 115.059 33.6348 115.006 33.5411C114.952 33.4474 114.926 33.3407 114.93 33.233L115.12 29.0171L111.74 26.4727C111.653 26.4078 111.586 26.3198 111.546 26.2188C111.507 26.1177 111.497 26.0077 111.518 25.9012C111.538 25.7948 111.589 25.6963 111.663 25.617C111.737 25.5378 111.832 25.4809 111.938 25.4529L116.023 24.3312L117.413 20.3516C117.448 20.2492 117.512 20.1587 117.596 20.0905C117.681 20.0222 117.783 19.9789 117.891 19.9654C117.999 19.952 118.109 19.9689 118.207 20.0143C118.306 20.0597 118.39 20.1317 118.45 20.2222L120.783 23.7442L125.033 23.8262C125.141 23.8283 125.247 23.8605 125.338 23.9192C125.43 23.978 125.502 24.061 125.549 24.1588C125.595 24.2566 125.613 24.3653 125.6 24.4727C125.588 24.5801 125.545 24.6818 125.478 24.7664L122.833 28.0645L124.065 32.1013C124.097 32.2058 124.099 32.3173 124.071 32.4229C124.042 32.5284 123.984 32.6238 123.903 32.6979C123.823 32.772 123.722 32.8219 123.614 32.8418C123.506 32.8617 123.395 32.8507 123.293 32.8102Z" fill="#6E62DB"/>
<path d="M16.21 61.352L13.2475 61.4714L12.08 64.2473L8.74748 64.1453L8.42249 67.4858L4.64998 67.5356L3.96999 70.5726L0.347473 71.2119L0.10498 69.8463L2.81248 69.3713L3.52998 66.1651L7.15749 66.1153L7.48749 62.7226L11.165 62.8345L12.3025 60.1233L15.05 60.0138L15.425 58.0762L16.7925 58.3374L16.21 61.352Z" fill="#4838D1"/>
<path d="M52.9476 58.1334C53.0687 59.3484 52.8249 60.5719 52.2471 61.6491C51.6693 62.7263 50.7835 63.6088 49.7016 64.1851C48.6196 64.7614 47.3903 65.0055 46.1689 64.8867C44.9475 64.7678 43.789 64.2913 42.8398 63.5174C41.8906 62.7434 41.1934 61.7068 40.8363 60.5387C40.4793 59.3705 40.4784 58.1232 40.8338 56.9546C41.1892 55.7859 41.8849 54.7483 42.833 53.973C43.781 53.1978 44.9389 52.7196 46.1601 52.599C46.971 52.519 47.7899 52.5986 48.5699 52.8334C49.3498 53.0682 50.0757 53.4536 50.706 53.9675C51.3363 54.4814 51.8586 55.1138 52.2433 55.8286C52.6279 56.5434 52.8672 57.3265 52.9476 58.1334Z" fill="#4838D1"/>
<path d="M43.5701 60.0408C43.6129 60.4719 43.7407 60.8904 43.9461 61.2724C44.1516 61.6544 44.4306 61.9924 44.7673 62.2672C45.1041 62.5419 45.4919 62.7479 45.9087 62.8736C46.3254 62.9992 46.763 63.0419 47.1964 62.9993C47.6298 62.9566 48.0504 62.8295 48.4344 62.6251C48.8184 62.4207 49.1582 62.1431 49.4343 61.8081C49.7105 61.4731 49.9176 61.0873 50.0438 60.6727C50.1701 60.2581 50.213 59.8227 50.1702 59.3916L43.5701 60.0408Z" fill="white"/>
<path d="M93.8175 33.5047L92.0275 30.9676L91.0275 31.9626C90.922 32.0674 90.7791 32.1262 90.63 32.1262C90.4809 32.1262 90.338 32.0674 90.2325 31.9626C90.1804 31.9108 90.1391 31.8494 90.1109 31.7817C90.0827 31.7141 90.0682 31.6416 90.0682 31.5683C90.0682 31.4951 90.0827 31.4226 90.1109 31.3549C90.1391 31.2873 90.1804 31.2258 90.2325 31.1741L91.395 30.0324L89.7925 27.7491L88.715 28.8037C88.663 28.8555 88.6012 28.8966 88.5332 28.9247C88.4652 28.9527 88.3924 28.9671 88.3188 28.9671C88.2452 28.9671 88.1723 28.9527 88.1043 28.9247C88.0363 28.8966 87.9745 28.8555 87.9225 28.8037C87.8704 28.7519 87.8291 28.6905 87.8009 28.6228C87.7727 28.5552 87.7582 28.4827 87.7582 28.4094C87.7582 28.3362 87.7727 28.2637 87.8009 28.196C87.8291 28.1284 87.8704 28.067 87.9225 28.0152L89.1525 26.8064L87.3175 24.1823C87.2423 24.074 87.2079 23.9429 87.2202 23.8119C87.2326 23.6809 87.2909 23.5584 87.385 23.4659L87.5725 23.2819C87.6305 23.2251 87.7002 23.1816 87.7768 23.1543C87.8534 23.1269 87.935 23.1165 88.0161 23.1235C88.0971 23.1306 88.1756 23.1551 88.2462 23.1954C88.3168 23.2356 88.3778 23.2906 88.425 23.3565L90.175 25.8139L91.96 24.0728L90.125 21.4487C90.0498 21.3405 90.0154 21.2093 90.0277 21.0783C90.0401 20.9473 90.0984 20.8248 90.1925 20.7324L90.3975 20.5309C90.4555 20.4739 90.5253 20.4302 90.602 20.4028C90.6788 20.3754 90.7606 20.3651 90.8418 20.3724C90.9229 20.3797 91.0015 20.4046 91.0721 20.4453C91.1426 20.486 91.2033 20.5415 91.25 20.608L93 23.063L94 22.0681C94.052 22.0162 94.1138 21.9751 94.1818 21.9471C94.2498 21.919 94.3226 21.9046 94.3963 21.9046C94.4699 21.9046 94.5427 21.919 94.6107 21.9471C94.6787 21.9751 94.7405 22.0162 94.7925 22.0681C94.8446 22.1198 94.8859 22.1813 94.9141 22.2489C94.9423 22.3166 94.9568 22.3891 94.9568 22.4623C94.9568 22.5355 94.9423 22.608 94.9141 22.6757C94.8859 22.7433 94.8446 22.8048 94.7925 22.8565L93.63 23.9982L95.26 26.2542L96.335 25.1971C96.387 25.1453 96.4488 25.1042 96.5168 25.0761C96.5848 25.0481 96.6577 25.0336 96.7313 25.0336C96.8049 25.0336 96.8777 25.0481 96.9457 25.0761C97.0137 25.1042 97.0755 25.1453 97.1275 25.1971C97.2329 25.302 97.292 25.4443 97.292 25.5926C97.292 25.7409 97.2329 25.8831 97.1275 25.988L95.8975 27.1944L97.7975 29.8857C97.8737 29.9938 97.9089 30.1253 97.897 30.2569C97.8851 30.3884 97.8269 30.5116 97.7325 30.6045L97.5125 30.8209C97.4545 30.8779 97.3847 30.9216 97.308 30.949C97.2312 30.9764 97.1494 30.9867 97.0682 30.9794C96.9871 30.972 96.9085 30.9472 96.838 30.9065C96.7674 30.8658 96.7067 30.8102 96.66 30.7438L94.8675 28.2067L93.0825 29.9479L94.9825 32.6391C95.0587 32.7473 95.0939 32.8788 95.082 33.0103C95.0701 33.1419 95.0119 33.265 94.9175 33.3579L94.6975 33.5718C94.6402 33.6344 94.5692 33.6831 94.4902 33.7142C94.4111 33.7454 94.3259 33.7583 94.241 33.7518C94.1562 33.7453 94.074 33.7197 94.0006 33.6769C93.9272 33.6341 93.8646 33.5752 93.8175 33.5047ZM94.2075 27.2665L92.595 24.9956L90.8125 26.7367L92.4225 29.0101L94.2075 27.2665Z" fill="#F45424"/>
<path d="M53.8274 29.0818C54.0482 28.5421 54.3872 28.0583 54.8196 27.6654C55.2521 27.2726 55.7672 26.9807 56.3274 26.8109C56.7163 26.6834 57.1269 26.635 57.5349 26.6685C57.9429 26.7021 58.3399 26.817 58.7024 27.0063C59.0649 27.1957 59.3854 27.4557 59.6448 27.7708C59.9042 28.0859 60.0972 28.4497 60.2125 28.8405C60.81 30.6861 59.8875 33.3897 56.2774 36.6405C51.4399 36.0958 49.1074 34.4318 48.5099 32.5838C48.3749 32.1996 48.3189 31.7922 48.3452 31.386C48.3715 30.9798 48.4797 30.5829 48.6632 30.2191C48.8468 29.8553 49.1019 29.5319 49.4136 29.2682C49.7253 29.0044 50.087 28.8057 50.4774 28.6838C51.0307 28.4996 51.6181 28.4397 52.1974 28.5086C52.7766 28.5774 53.3334 28.7731 53.8274 29.0818Z" fill="#F45424"/>
<path d="M39.7426 34.4041C41.2759 34.1784 42.795 33.8654 44.2926 33.4666C44.7451 33.3466 45.5626 33.2691 45.7726 32.7991C45.8318 32.6888 45.8474 32.5603 45.8163 32.439C45.7853 32.3177 45.71 32.2125 45.6051 32.1441C45.1726 31.8591 44.5326 32.1866 44.0751 32.3091C42.6876 32.6791 41.0976 33.0316 39.4701 33.2941C39.3972 33.3119 39.3286 33.3438 39.268 33.388C39.2075 33.4323 39.1562 33.4881 39.1172 33.5521C39.0782 33.6162 39.0522 33.6873 39.0407 33.7615C39.0292 33.8356 39.0324 33.9112 39.0501 33.9841C39.0679 34.057 39.0998 34.1257 39.144 34.1862C39.1883 34.2468 39.2441 34.298 39.3081 34.337C39.3722 34.376 39.4433 34.402 39.5175 34.4135C39.5916 34.4251 39.6672 34.4219 39.7401 34.4041H39.7426Z" fill="#F45424"/>
<path d="M63.8775 31.8213C64.545 31.6563 65.2075 31.4788 65.8775 31.3013C66.5475 31.1238 67.295 31.0513 67.84 30.6688C67.9292 30.6131 67.9985 30.5307 68.0382 30.4333C68.0779 30.3359 68.0858 30.2284 68.0609 30.1263C68.036 30.0241 67.9794 29.9324 67.8994 29.8641C67.8193 29.7959 67.7198 29.7547 67.615 29.7463C66.9525 29.6888 66.24 29.9963 65.615 30.1663C64.99 30.3363 64.2875 30.5213 63.615 30.7088C62.9075 30.9113 63.1675 31.9988 63.885 31.8213H63.8775Z" fill="#F45424"/>
<path d="M48.1726 41.4434C48.6401 39.8316 49.5426 39.1377 50.1727 38.399C50.2487 38.3209 50.2945 38.2186 50.3019 38.1101C50.3093 38.0016 50.2779 37.894 50.2132 37.8064C50.1485 37.7187 50.0547 37.6567 49.9484 37.6314C49.8421 37.606 49.7303 37.6189 49.6326 37.6677C48.2976 38.2497 47.4426 39.8018 47.0726 41.1499C46.8776 41.8513 47.9651 42.1597 48.1676 41.4558L48.1726 41.4434Z" fill="#F45424"/>
<path d="M56.7626 42.936C56.5522 42.2659 56.4857 41.5592 56.5676 40.8618C56.6201 40.429 57.1251 39.1357 56.2901 39.1357C55.5025 39.1357 55.425 40.4415 55.3825 40.9961C55.3264 41.7413 55.4112 42.4904 55.6325 43.2046C55.855 43.9035 56.9651 43.6424 56.7501 42.936H56.7626Z" fill="#F45424"/>
<path d="M61.2927 37.2952L62.6127 37.8102C63.0527 37.9827 63.5077 38.2777 63.9677 38.0602C64.0815 37.9964 64.1659 37.8906 64.2028 37.7654C64.2397 37.6402 64.2262 37.5056 64.1651 37.3902C63.9926 36.9552 63.3326 36.8452 62.9301 36.6902L61.6077 36.1902C61.5343 36.1695 61.4575 36.1635 61.3818 36.1725C61.3061 36.1815 61.2329 36.2052 61.1664 36.2425C61.0999 36.2798 61.0414 36.3297 60.9942 36.3896C60.947 36.4495 60.9121 36.5181 60.8914 36.5915C60.8707 36.6648 60.8647 36.7416 60.8737 36.8173C60.8826 36.893 60.9064 36.9662 60.9437 37.0327C60.9809 37.0992 61.0309 37.1577 61.0908 37.2049C61.1507 37.2521 61.2193 37.287 61.2927 37.3077V37.2952Z" fill="#F45424"/>
<path d="M48.1826 26.2185C45.8801 23.2065 45.9026 23.1816 45.5451 22.9851C45.4603 22.932 45.3613 22.9055 45.2611 22.909C45.1608 22.9125 45.064 22.946 44.9831 23.005C44.9022 23.064 44.8411 23.1458 44.8076 23.2399C44.774 23.3339 44.7697 23.4358 44.7952 23.5323C44.9052 23.9502 44.8952 23.8781 47.3276 27.0392C47.4365 27.1502 47.5849 27.2139 47.7407 27.2167C47.8966 27.2195 48.0472 27.1611 48.1601 27.0542C48.2698 26.9449 48.3327 26.7975 48.3355 26.6431C48.3383 26.4886 48.2808 26.3391 48.1751 26.2259L48.1826 26.2185Z" fill="#F45424"/>
<path d="M54.2401 24.5996C54.3143 23.9821 54.321 23.3584 54.2601 22.7394C54.2026 22.1624 54.1952 21.2721 53.5776 21.0209C53.5026 20.998 53.4227 20.9958 53.3465 21.0147C53.2703 21.0335 53.2007 21.0726 53.1451 21.1278C52.7551 21.5705 53.0526 22.2992 53.1026 22.8314C53.1522 23.4106 53.1522 23.993 53.1026 24.5723C53.0963 24.6495 53.1059 24.7273 53.131 24.8006C53.156 24.874 53.1959 24.9416 53.2482 24.999C53.3005 25.0565 53.3641 25.1027 53.4351 25.1347C53.506 25.1667 53.5828 25.184 53.6607 25.1853C53.7386 25.1867 53.816 25.1722 53.888 25.1426C53.9601 25.1131 54.0253 25.0691 54.0796 25.0136C54.1339 24.958 54.1761 24.8919 54.2037 24.8194C54.2314 24.7469 54.2437 24.6696 54.2401 24.5922V24.5996Z" fill="#F45424"/>
<path d="M62.9501 22.9212C62.9826 22.6376 62.7001 22.4485 62.4651 22.4236C61.9651 22.3639 61.4651 22.961 61.1476 23.2894C60.7708 23.6701 60.4263 24.0812 60.1176 24.5184C60.0792 24.5838 60.0541 24.656 60.0437 24.731C60.0334 24.806 60.0379 24.8823 60.0572 24.9555C60.0765 25.0288 60.1101 25.0975 60.156 25.1578C60.202 25.2181 60.2594 25.2689 60.3251 25.3071C60.3908 25.3453 60.4633 25.3703 60.5387 25.3806C60.6141 25.3909 60.6907 25.3864 60.7643 25.3672C60.8379 25.348 60.907 25.3146 60.9676 25.2689C61.0282 25.2231 61.0792 25.1659 61.1176 25.1006C62.3451 23.4934 62.8726 23.6203 62.9501 22.9212Z" fill="#F45424"/>
<path d="M81.4525 30.3652L81.5 32.3003L78.3776 32.7182L78.0951 35.5561L75.8101 36.2476L76.1626 37.3992L79.2201 36.4714L79.4876 33.7827L82.7325 33.3474L82.6625 30.4349L81.4525 30.3652Z" fill="#4838D1"/>
<path d="M202.17 177.767C202.17 177.284 201.978 176.892 201.74 176.892H15.9277C15.6452 176.892 15.4277 177.284 15.4277 177.767C15.4277 178.249 15.6552 178.639 15.9277 178.639H201.74C201.99 178.639 202.17 178.249 202.17 177.767Z" fill="#1C155B"/>
</svg>
