<svg width="24" height="24" viewBox="0 0 24 24" fill="none" xmlns="http://www.w3.org/2000/svg">
<path fill-rule="evenodd" clip-rule="evenodd" d="M11.3723 3.39502V13.6192L9.73769 11.9791L9.65372 11.9063C9.36056 11.6878 8.94384 11.7112 8.67703 11.9769C8.38354 12.2692 8.38256 12.7441 8.67485 13.0376L11.5909 15.9656L11.5931 15.9675C11.6178 15.9921 11.6441 16.0149 11.6719 16.0358L11.6751 16.0385C11.9691 16.2575 12.3872 16.2331 12.6537 15.9656L15.5697 13.0376L15.6421 12.9533C15.8594 12.6592 15.8343 12.2426 15.5675 11.9769L15.4832 11.9045C15.1892 11.6872 14.7726 11.7123 14.5069 11.9791L12.8723 13.6197V3.39502L12.8654 3.29325C12.8158 2.92717 12.502 2.64502 12.1223 2.64502C11.7081 2.64502 11.3723 2.98081 11.3723 3.39502ZM17.9054 21.1171C20.2529 21.0084 22.1221 19.0713 22.1221 16.6969V11.8129L22.1172 11.6041C22.0083 9.25109 20.0675 7.37792 17.6881 7.37792H16.7551L16.6533 7.38477C16.2872 7.43443 16.0051 7.74822 16.0051 8.12792C16.0051 8.54213 16.3409 8.87792 16.7551 8.87792H17.6881L17.8605 8.8829C19.4011 8.97212 20.6221 10.2492 20.6221 11.8129V16.6969L20.6171 16.8688C20.5282 18.4046 19.2552 19.6219 17.6971 19.6219H6.55707L6.38463 19.6169C4.84409 19.5277 3.62207 18.2498 3.62207 16.6869V11.8019L3.62704 11.6301C3.71603 10.0955 4.98971 8.87792 6.54707 8.87792H7.48907L7.59084 8.87107C7.95692 8.82141 8.23907 8.50762 8.23907 8.12792C8.23907 7.71371 7.90328 7.37792 7.48907 7.37792H6.54707L6.33272 7.38302C3.98887 7.49484 2.12207 9.43069 2.12207 11.8019V16.6869L2.1269 16.8957C2.23592 19.248 4.17783 21.1219 6.55707 21.1219H17.6971L17.9054 21.1171Z" fill="#2E2E5D"/>
</svg>
